; NON-PLATED HOLES START AT T1
; THROUGH (PLATED) HOLES START AT T100
M48
INCH
T100C0.040000
T101C0.036000
T102C0.035000
T103C0.038189
T104C0.025000
T105C0.027559
T106C0.015748
T107C0.038000
%
T100
X022401Y008365
X017401Y002465
X022401Y005365
X018401Y005365
X018401Y002365
X023401Y006365
X013301Y002365
X018501Y006365
X007301Y002365
X022401Y007365
X018401Y007365
X010301Y002365
X008401Y002365
X011401Y002365
X023401Y008365
X023401Y005365
X022401Y006365
X016401Y002365
X014401Y002365
X023401Y007365
T101
X009401Y009365
X012401Y009365
X004401Y015365
X008401Y009365
X011401Y009365
X018401Y015365
X005401Y009365
X015401Y015365
X017401Y009365
X009401Y015365
X012401Y015365
X016401Y009365
X008401Y015365
X011401Y015365
X014401Y009365
X013401Y009365
X005401Y015365
X007401Y009365
X010401Y009365
X006401Y009365
X017401Y015365
X004401Y009365
X016401Y015365
X014401Y015365
X018401Y009365
X013401Y015365
X015401Y009365
X007401Y015365
X010401Y015365
X006401Y015365
T102
X007401Y008365
X005401Y003365
X003401Y008365
X007401Y004365
X003401Y004365
X005401Y007365
T103
X024401Y015365
X021401Y012365
X024401Y013365
X021401Y015365
X021401Y013365
X024401Y014365
X024401Y012365
X021401Y014365
T104
X002975Y002365
X001401Y002365
X003763Y002365
X002189Y002365
T105
X011401Y005365
X011401Y006365
T106
X009870Y006389
X019950Y006149
X002910Y012389
X013470Y003989
X007950Y014069
X008910Y000629
X021630Y009749
T107
X001401Y009365
X001401Y013365
X021401Y002365
X001401Y014365
X001401Y015365
X022401Y002365
X023401Y002365
X001401Y010365
X001401Y011365
X001401Y012365
T00
M30
