G04 MADE WITH FRITZING*
G04 WWW.FRITZING.ORG*
G04 DOUBLE SIDED*
G04 HOLES PLATED*
G04 CONTOUR ON CENTER OF CONTOUR VECTOR*
%ASAXBY*%
%FSLAX23Y23*%
%MOIN*%
%OFA0B0*%
%SFA1.0B1.0*%
%ADD10C,0.075000*%
%ADD11C,0.039370*%
%ADD12C,0.074000*%
%ADD13C,0.065000*%
%ADD14C,0.058189*%
%ADD15C,0.078000*%
%ADD16C,0.070000*%
%ADD17R,0.074000X0.074000*%
%ADD18R,0.070000X0.069972*%
%ADD19C,0.024000*%
%ADD20R,0.001000X0.001000*%
%LNCOPPER0*%
G90*
G70*
G54D10*
X740Y837D03*
X740Y437D03*
X540Y737D03*
X540Y337D03*
X340Y837D03*
X340Y437D03*
G54D11*
X291Y1239D03*
X1995Y615D03*
X795Y1407D03*
X2163Y975D03*
X987Y639D03*
X1347Y399D03*
X891Y63D03*
G54D12*
X2340Y837D03*
X2340Y737D03*
X2340Y637D03*
X2340Y537D03*
X2240Y837D03*
X2240Y737D03*
X2240Y637D03*
X2240Y537D03*
G54D13*
X140Y237D03*
X219Y237D03*
X298Y237D03*
X376Y237D03*
G54D14*
X2140Y1537D03*
X2140Y1437D03*
X2140Y1337D03*
X2140Y1237D03*
X2440Y1237D03*
X2440Y1337D03*
X2440Y1437D03*
X2440Y1537D03*
G54D12*
X1140Y237D03*
X1030Y237D03*
X840Y237D03*
X730Y237D03*
X1440Y237D03*
X1330Y237D03*
G54D15*
X2340Y237D03*
X2240Y237D03*
X2140Y237D03*
G54D12*
X1840Y237D03*
X1740Y247D03*
X1640Y237D03*
G54D13*
X1140Y537D03*
X1140Y637D03*
G54D12*
X1840Y537D03*
X1850Y637D03*
X1840Y737D03*
G54D15*
X140Y1537D03*
X140Y1437D03*
X140Y1337D03*
X140Y1237D03*
X140Y1137D03*
X140Y1037D03*
X140Y937D03*
G54D16*
X1840Y1537D03*
X1740Y1537D03*
X1640Y1537D03*
X1540Y1537D03*
X1440Y1537D03*
X1340Y1537D03*
X1240Y1537D03*
X1140Y1537D03*
X1040Y1537D03*
X940Y1537D03*
X840Y1537D03*
X740Y1537D03*
X640Y1537D03*
X540Y1537D03*
X440Y1537D03*
X1840Y937D03*
X1740Y937D03*
X1640Y937D03*
X1540Y937D03*
X1440Y937D03*
X1340Y937D03*
X1240Y937D03*
X1140Y937D03*
X1040Y937D03*
X940Y937D03*
X840Y937D03*
X740Y937D03*
X640Y937D03*
X540Y937D03*
X440Y937D03*
G54D17*
X2240Y837D03*
G54D18*
X1840Y1537D03*
G54D19*
X396Y249D02*
X516Y322D01*
D02*
X740Y907D02*
X740Y865D01*
D02*
X302Y260D02*
X334Y409D01*
D02*
X1359Y1514D02*
X1427Y1432D01*
D02*
X1427Y1432D02*
X2087Y1436D01*
D02*
X569Y739D02*
X771Y759D01*
D02*
X771Y759D02*
X920Y915D01*
D02*
X940Y1507D02*
X939Y1479D01*
D02*
X939Y1479D02*
X363Y1479D01*
D02*
X363Y1479D02*
X169Y1529D01*
D02*
X153Y256D02*
X325Y525D01*
D02*
X325Y525D02*
X595Y471D01*
D02*
X595Y471D02*
X712Y443D01*
D02*
X1249Y1509D02*
X1251Y1503D01*
D02*
X1251Y1503D02*
X1395Y1383D01*
D02*
X1395Y1383D02*
X2087Y1340D01*
D02*
X1162Y1518D02*
X1380Y1330D01*
D02*
X1380Y1330D02*
X2087Y1243D01*
D02*
X1229Y963D02*
X1203Y1023D01*
D02*
X1203Y1023D02*
X363Y1023D01*
D02*
X363Y1023D02*
X162Y1216D01*
D02*
X1326Y962D02*
X1251Y1095D01*
D02*
X1251Y1095D02*
X411Y1095D01*
D02*
X411Y1095D02*
X303Y1224D01*
D02*
X449Y909D02*
X478Y813D01*
D02*
X478Y813D02*
X466Y646D01*
D02*
X466Y646D02*
X819Y699D01*
D02*
X819Y699D02*
X891Y771D01*
D02*
X891Y771D02*
X1899Y807D01*
D02*
X1899Y807D02*
X1899Y711D01*
D02*
X1899Y711D02*
X2210Y643D01*
D02*
X2330Y265D02*
X2307Y327D01*
D02*
X2307Y327D02*
X1131Y327D01*
D02*
X1131Y327D02*
X867Y615D01*
D02*
X867Y615D02*
X417Y593D01*
D02*
X417Y593D02*
X421Y852D01*
D02*
X421Y852D02*
X351Y962D01*
D02*
X351Y962D02*
X169Y1027D01*
D02*
X170Y1331D02*
X1299Y1131D01*
D02*
X1299Y1131D02*
X1371Y999D01*
D02*
X1371Y999D02*
X1899Y999D01*
D02*
X1899Y999D02*
X1899Y879D01*
D02*
X1899Y879D02*
X1131Y879D01*
D02*
X1131Y879D02*
X1136Y908D01*
D02*
X2110Y237D02*
X1871Y237D01*
D02*
X1877Y622D02*
X2379Y351D01*
D02*
X2379Y351D02*
X2403Y303D01*
D02*
X2403Y303D02*
X2403Y159D01*
D02*
X2403Y159D02*
X2163Y159D01*
D02*
X2163Y159D02*
X2149Y208D01*
D02*
X1976Y618D02*
X1881Y632D01*
D02*
X148Y908D02*
X247Y562D01*
D02*
X247Y562D02*
X819Y543D01*
D02*
X819Y543D02*
X963Y399D01*
D02*
X963Y399D02*
X963Y159D01*
D02*
X963Y159D02*
X1840Y137D01*
D02*
X1840Y137D02*
X1840Y205D01*
D02*
X2209Y741D02*
X1947Y783D01*
D02*
X1947Y783D02*
X1947Y1071D01*
D02*
X1947Y1071D02*
X813Y1402D01*
D02*
X2371Y736D02*
X2407Y736D01*
D02*
X2403Y893D02*
X2360Y972D01*
D02*
X2407Y736D02*
X2403Y893D01*
D02*
X2360Y972D02*
X2234Y1022D01*
D02*
X2234Y1022D02*
X2223Y1575D01*
D02*
X2223Y1575D02*
X2211Y1587D01*
D02*
X2211Y1587D02*
X1899Y1599D01*
D02*
X1899Y1599D02*
X651Y1599D01*
D02*
X651Y1599D02*
X645Y1565D01*
D02*
X2366Y654D02*
X2452Y711D01*
D02*
X2452Y711D02*
X2442Y1004D01*
D02*
X2442Y1004D02*
X2284Y1057D01*
D02*
X2284Y1057D02*
X2283Y1623D01*
D02*
X2283Y1623D02*
X2259Y1647D01*
D02*
X2259Y1647D02*
X603Y1647D01*
D02*
X603Y1647D02*
X555Y1562D01*
D02*
X2257Y511D02*
X2283Y471D01*
D02*
X2283Y471D02*
X2403Y471D01*
D02*
X2403Y471D02*
X2499Y639D01*
D02*
X2499Y639D02*
X2487Y1034D01*
D02*
X2487Y1034D02*
X2335Y1098D01*
D02*
X2335Y1098D02*
X2331Y1671D01*
D02*
X2331Y1671D02*
X2307Y1695D01*
D02*
X2307Y1695D02*
X531Y1695D01*
D02*
X531Y1695D02*
X455Y1562D01*
D02*
X2440Y1413D02*
X2440Y1360D01*
D02*
X2440Y1513D02*
X2440Y1460D01*
D02*
X2214Y853D02*
X2211Y855D01*
D02*
X2211Y855D02*
X2170Y957D01*
D02*
X1812Y549D02*
X1725Y586D01*
D02*
X1725Y586D02*
X1694Y724D01*
D02*
X1694Y724D02*
X1107Y734D01*
D02*
X1107Y734D02*
X1050Y660D01*
D02*
X1050Y660D02*
X1005Y645D01*
D02*
X1328Y398D02*
X1162Y393D01*
D02*
X1162Y393D02*
X1097Y457D01*
D02*
X1097Y457D02*
X1050Y660D01*
D02*
X1128Y515D02*
X1097Y457D01*
D02*
X751Y214D02*
X878Y77D01*
G54D20*
X2105Y1566D02*
X2174Y1566D01*
X2405Y1566D02*
X2474Y1566D01*
X2102Y1565D02*
X2178Y1565D01*
X2402Y1565D02*
X2478Y1565D01*
X2099Y1564D02*
X2180Y1564D01*
X2399Y1564D02*
X2480Y1564D01*
X2097Y1563D02*
X2182Y1563D01*
X2397Y1563D02*
X2482Y1563D01*
X2095Y1562D02*
X2184Y1562D01*
X2395Y1562D02*
X2484Y1562D01*
X2094Y1561D02*
X2185Y1561D01*
X2394Y1561D02*
X2485Y1561D01*
X2093Y1560D02*
X2187Y1560D01*
X2393Y1560D02*
X2487Y1560D01*
X2091Y1559D02*
X2188Y1559D01*
X2391Y1559D02*
X2488Y1559D01*
X2090Y1558D02*
X2189Y1558D01*
X2390Y1558D02*
X2489Y1558D01*
X2089Y1557D02*
X2190Y1557D01*
X2389Y1557D02*
X2490Y1557D01*
X2089Y1556D02*
X2135Y1556D01*
X2145Y1556D02*
X2191Y1556D01*
X2389Y1556D02*
X2435Y1556D01*
X2445Y1556D02*
X2491Y1556D01*
X2088Y1555D02*
X2132Y1555D01*
X2148Y1555D02*
X2191Y1555D01*
X2388Y1555D02*
X2432Y1555D01*
X2448Y1555D02*
X2491Y1555D01*
X2087Y1554D02*
X2130Y1554D01*
X2149Y1554D02*
X2192Y1554D01*
X2387Y1554D02*
X2430Y1554D01*
X2449Y1554D02*
X2492Y1554D01*
X2086Y1553D02*
X2128Y1553D01*
X2151Y1553D02*
X2193Y1553D01*
X2386Y1553D02*
X2428Y1553D01*
X2451Y1553D02*
X2493Y1553D01*
X2086Y1552D02*
X2127Y1552D01*
X2152Y1552D02*
X2193Y1552D01*
X2386Y1552D02*
X2427Y1552D01*
X2452Y1552D02*
X2493Y1552D01*
X2085Y1551D02*
X2126Y1551D01*
X2154Y1551D02*
X2194Y1551D01*
X2385Y1551D02*
X2426Y1551D01*
X2453Y1551D02*
X2494Y1551D01*
X2085Y1550D02*
X2125Y1550D01*
X2154Y1550D02*
X2194Y1550D01*
X2385Y1550D02*
X2425Y1550D01*
X2454Y1550D02*
X2494Y1550D01*
X2084Y1549D02*
X2124Y1549D01*
X2155Y1549D02*
X2195Y1549D01*
X2384Y1549D02*
X2424Y1549D01*
X2455Y1549D02*
X2495Y1549D01*
X2084Y1548D02*
X2123Y1548D01*
X2156Y1548D02*
X2195Y1548D01*
X2384Y1548D02*
X2423Y1548D01*
X2456Y1548D02*
X2495Y1548D01*
X2083Y1547D02*
X2123Y1547D01*
X2157Y1547D02*
X2196Y1547D01*
X2383Y1547D02*
X2423Y1547D01*
X2457Y1547D02*
X2496Y1547D01*
X2083Y1546D02*
X2122Y1546D01*
X2157Y1546D02*
X2196Y1546D01*
X2383Y1546D02*
X2422Y1546D01*
X2457Y1546D02*
X2496Y1546D01*
X2083Y1545D02*
X2122Y1545D01*
X2158Y1545D02*
X2196Y1545D01*
X2383Y1545D02*
X2422Y1545D01*
X2458Y1545D02*
X2496Y1545D01*
X2083Y1544D02*
X2121Y1544D01*
X2158Y1544D02*
X2197Y1544D01*
X2383Y1544D02*
X2421Y1544D01*
X2458Y1544D02*
X2496Y1544D01*
X2082Y1543D02*
X2121Y1543D01*
X2158Y1543D02*
X2197Y1543D01*
X2382Y1543D02*
X2421Y1543D01*
X2458Y1543D02*
X2497Y1543D01*
X2082Y1542D02*
X2121Y1542D01*
X2159Y1542D02*
X2197Y1542D01*
X2382Y1542D02*
X2421Y1542D01*
X2459Y1542D02*
X2497Y1542D01*
X2082Y1541D02*
X2120Y1541D01*
X2159Y1541D02*
X2197Y1541D01*
X2382Y1541D02*
X2420Y1541D01*
X2459Y1541D02*
X2497Y1541D01*
X2082Y1540D02*
X2120Y1540D01*
X2159Y1540D02*
X2197Y1540D01*
X2382Y1540D02*
X2420Y1540D01*
X2459Y1540D02*
X2497Y1540D01*
X2082Y1539D02*
X2120Y1539D01*
X2159Y1539D02*
X2197Y1539D01*
X2382Y1539D02*
X2420Y1539D01*
X2459Y1539D02*
X2497Y1539D01*
X2082Y1538D02*
X2120Y1538D01*
X2159Y1538D02*
X2197Y1538D01*
X2382Y1538D02*
X2420Y1538D01*
X2459Y1538D02*
X2497Y1538D01*
X2082Y1537D02*
X2120Y1537D01*
X2159Y1537D02*
X2197Y1537D01*
X2382Y1537D02*
X2420Y1537D01*
X2459Y1537D02*
X2497Y1537D01*
X2082Y1536D02*
X2120Y1536D01*
X2159Y1536D02*
X2197Y1536D01*
X2382Y1536D02*
X2420Y1536D01*
X2459Y1536D02*
X2497Y1536D01*
X2082Y1535D02*
X2120Y1535D01*
X2159Y1535D02*
X2197Y1535D01*
X2382Y1535D02*
X2420Y1535D01*
X2459Y1535D02*
X2497Y1535D01*
X2082Y1534D02*
X2120Y1534D01*
X2159Y1534D02*
X2197Y1534D01*
X2382Y1534D02*
X2420Y1534D01*
X2459Y1534D02*
X2497Y1534D01*
X2082Y1533D02*
X2121Y1533D01*
X2159Y1533D02*
X2197Y1533D01*
X2382Y1533D02*
X2421Y1533D01*
X2459Y1533D02*
X2497Y1533D01*
X2082Y1532D02*
X2121Y1532D01*
X2158Y1532D02*
X2197Y1532D01*
X2382Y1532D02*
X2421Y1532D01*
X2458Y1532D02*
X2497Y1532D01*
X2083Y1531D02*
X2121Y1531D01*
X2158Y1531D02*
X2197Y1531D01*
X2383Y1531D02*
X2421Y1531D01*
X2458Y1531D02*
X2496Y1531D01*
X2083Y1530D02*
X2122Y1530D01*
X2158Y1530D02*
X2196Y1530D01*
X2383Y1530D02*
X2422Y1530D01*
X2458Y1530D02*
X2496Y1530D01*
X2083Y1529D02*
X2122Y1529D01*
X2157Y1529D02*
X2196Y1529D01*
X2383Y1529D02*
X2422Y1529D01*
X2457Y1529D02*
X2496Y1529D01*
X2083Y1528D02*
X2123Y1528D01*
X2157Y1528D02*
X2196Y1528D01*
X2383Y1528D02*
X2423Y1528D01*
X2457Y1528D02*
X2496Y1528D01*
X2084Y1527D02*
X2123Y1527D01*
X2156Y1527D02*
X2195Y1527D01*
X2384Y1527D02*
X2423Y1527D01*
X2456Y1527D02*
X2495Y1527D01*
X2084Y1526D02*
X2124Y1526D01*
X2155Y1526D02*
X2195Y1526D01*
X2384Y1526D02*
X2424Y1526D01*
X2455Y1526D02*
X2495Y1526D01*
X2085Y1525D02*
X2125Y1525D01*
X2154Y1525D02*
X2194Y1525D01*
X2385Y1525D02*
X2425Y1525D01*
X2454Y1525D02*
X2494Y1525D01*
X2085Y1524D02*
X2126Y1524D01*
X2154Y1524D02*
X2194Y1524D01*
X2385Y1524D02*
X2426Y1524D01*
X2454Y1524D02*
X2494Y1524D01*
X2086Y1523D02*
X2127Y1523D01*
X2152Y1523D02*
X2193Y1523D01*
X2386Y1523D02*
X2427Y1523D01*
X2452Y1523D02*
X2493Y1523D01*
X2086Y1522D02*
X2128Y1522D01*
X2151Y1522D02*
X2193Y1522D01*
X2386Y1522D02*
X2428Y1522D01*
X2451Y1522D02*
X2493Y1522D01*
X2087Y1521D02*
X2130Y1521D01*
X2150Y1521D02*
X2192Y1521D01*
X2387Y1521D02*
X2430Y1521D01*
X2450Y1521D02*
X2492Y1521D01*
X2088Y1520D02*
X2132Y1520D01*
X2148Y1520D02*
X2191Y1520D01*
X2388Y1520D02*
X2431Y1520D01*
X2448Y1520D02*
X2491Y1520D01*
X2089Y1519D02*
X2135Y1519D01*
X2145Y1519D02*
X2191Y1519D01*
X2389Y1519D02*
X2435Y1519D01*
X2445Y1519D02*
X2491Y1519D01*
X2089Y1518D02*
X2190Y1518D01*
X2389Y1518D02*
X2490Y1518D01*
X2090Y1517D02*
X2189Y1517D01*
X2390Y1517D02*
X2489Y1517D01*
X2091Y1516D02*
X2188Y1516D01*
X2391Y1516D02*
X2488Y1516D01*
X2093Y1515D02*
X2187Y1515D01*
X2393Y1515D02*
X2487Y1515D01*
X2094Y1514D02*
X2185Y1514D01*
X2394Y1514D02*
X2485Y1514D01*
X2095Y1513D02*
X2184Y1513D01*
X2395Y1513D02*
X2484Y1513D01*
X2097Y1512D02*
X2182Y1512D01*
X2397Y1512D02*
X2482Y1512D01*
X2099Y1511D02*
X2180Y1511D01*
X2399Y1511D02*
X2480Y1511D01*
X2102Y1510D02*
X2178Y1510D01*
X2402Y1510D02*
X2478Y1510D01*
X2105Y1509D02*
X2174Y1509D01*
X2405Y1509D02*
X2474Y1509D01*
X2105Y1466D02*
X2174Y1466D01*
X2405Y1466D02*
X2474Y1466D01*
X2101Y1465D02*
X2178Y1465D01*
X2401Y1465D02*
X2478Y1465D01*
X2099Y1464D02*
X2180Y1464D01*
X2399Y1464D02*
X2480Y1464D01*
X2097Y1463D02*
X2182Y1463D01*
X2397Y1463D02*
X2482Y1463D01*
X2095Y1462D02*
X2184Y1462D01*
X2395Y1462D02*
X2484Y1462D01*
X2094Y1461D02*
X2185Y1461D01*
X2394Y1461D02*
X2485Y1461D01*
X2093Y1460D02*
X2187Y1460D01*
X2393Y1460D02*
X2487Y1460D01*
X2091Y1459D02*
X2188Y1459D01*
X2391Y1459D02*
X2488Y1459D01*
X2090Y1458D02*
X2189Y1458D01*
X2390Y1458D02*
X2489Y1458D01*
X2089Y1457D02*
X2190Y1457D01*
X2389Y1457D02*
X2490Y1457D01*
X2089Y1456D02*
X2135Y1456D01*
X2145Y1456D02*
X2191Y1456D01*
X2389Y1456D02*
X2435Y1456D01*
X2445Y1456D02*
X2491Y1456D01*
X2088Y1455D02*
X2131Y1455D01*
X2148Y1455D02*
X2191Y1455D01*
X2388Y1455D02*
X2431Y1455D01*
X2448Y1455D02*
X2491Y1455D01*
X2087Y1454D02*
X2130Y1454D01*
X2150Y1454D02*
X2192Y1454D01*
X2387Y1454D02*
X2430Y1454D01*
X2450Y1454D02*
X2492Y1454D01*
X2086Y1453D02*
X2128Y1453D01*
X2151Y1453D02*
X2193Y1453D01*
X2386Y1453D02*
X2428Y1453D01*
X2451Y1453D02*
X2493Y1453D01*
X2086Y1452D02*
X2127Y1452D01*
X2152Y1452D02*
X2193Y1452D01*
X2386Y1452D02*
X2427Y1452D01*
X2452Y1452D02*
X2493Y1452D01*
X2085Y1451D02*
X2126Y1451D01*
X2154Y1451D02*
X2194Y1451D01*
X2385Y1451D02*
X2426Y1451D01*
X2454Y1451D02*
X2494Y1451D01*
X2085Y1450D02*
X2125Y1450D01*
X2154Y1450D02*
X2194Y1450D01*
X2385Y1450D02*
X2425Y1450D01*
X2454Y1450D02*
X2494Y1450D01*
X2084Y1449D02*
X2124Y1449D01*
X2155Y1449D02*
X2195Y1449D01*
X2384Y1449D02*
X2424Y1449D01*
X2455Y1449D02*
X2495Y1449D01*
X2084Y1448D02*
X2123Y1448D01*
X2156Y1448D02*
X2195Y1448D01*
X2384Y1448D02*
X2423Y1448D01*
X2456Y1448D02*
X2495Y1448D01*
X2083Y1447D02*
X2123Y1447D01*
X2157Y1447D02*
X2196Y1447D01*
X2383Y1447D02*
X2423Y1447D01*
X2457Y1447D02*
X2496Y1447D01*
X2083Y1446D02*
X2122Y1446D01*
X2157Y1446D02*
X2196Y1446D01*
X2383Y1446D02*
X2422Y1446D01*
X2457Y1446D02*
X2496Y1446D01*
X2083Y1445D02*
X2122Y1445D01*
X2158Y1445D02*
X2196Y1445D01*
X2383Y1445D02*
X2422Y1445D01*
X2458Y1445D02*
X2496Y1445D01*
X2083Y1444D02*
X2121Y1444D01*
X2158Y1444D02*
X2197Y1444D01*
X2383Y1444D02*
X2421Y1444D01*
X2458Y1444D02*
X2496Y1444D01*
X2082Y1443D02*
X2121Y1443D01*
X2158Y1443D02*
X2197Y1443D01*
X2382Y1443D02*
X2421Y1443D01*
X2458Y1443D02*
X2497Y1443D01*
X2082Y1442D02*
X2121Y1442D01*
X2159Y1442D02*
X2197Y1442D01*
X2382Y1442D02*
X2421Y1442D01*
X2459Y1442D02*
X2497Y1442D01*
X2082Y1441D02*
X2120Y1441D01*
X2159Y1441D02*
X2197Y1441D01*
X2382Y1441D02*
X2420Y1441D01*
X2459Y1441D02*
X2497Y1441D01*
X2082Y1440D02*
X2120Y1440D01*
X2159Y1440D02*
X2197Y1440D01*
X2382Y1440D02*
X2420Y1440D01*
X2459Y1440D02*
X2497Y1440D01*
X2082Y1439D02*
X2120Y1439D01*
X2159Y1439D02*
X2197Y1439D01*
X2382Y1439D02*
X2420Y1439D01*
X2459Y1439D02*
X2497Y1439D01*
X2082Y1438D02*
X2120Y1438D01*
X2159Y1438D02*
X2197Y1438D01*
X2382Y1438D02*
X2420Y1438D01*
X2459Y1438D02*
X2497Y1438D01*
X2082Y1437D02*
X2120Y1437D01*
X2159Y1437D02*
X2197Y1437D01*
X2382Y1437D02*
X2420Y1437D01*
X2459Y1437D02*
X2497Y1437D01*
X2082Y1436D02*
X2120Y1436D01*
X2159Y1436D02*
X2197Y1436D01*
X2382Y1436D02*
X2420Y1436D01*
X2459Y1436D02*
X2497Y1436D01*
X2082Y1435D02*
X2120Y1435D01*
X2159Y1435D02*
X2197Y1435D01*
X2382Y1435D02*
X2420Y1435D01*
X2459Y1435D02*
X2497Y1435D01*
X2082Y1434D02*
X2120Y1434D01*
X2159Y1434D02*
X2197Y1434D01*
X2382Y1434D02*
X2420Y1434D01*
X2459Y1434D02*
X2497Y1434D01*
X2082Y1433D02*
X2121Y1433D01*
X2159Y1433D02*
X2197Y1433D01*
X2382Y1433D02*
X2421Y1433D01*
X2459Y1433D02*
X2497Y1433D01*
X2082Y1432D02*
X2121Y1432D01*
X2158Y1432D02*
X2197Y1432D01*
X2382Y1432D02*
X2421Y1432D01*
X2458Y1432D02*
X2497Y1432D01*
X2083Y1431D02*
X2121Y1431D01*
X2158Y1431D02*
X2197Y1431D01*
X2383Y1431D02*
X2421Y1431D01*
X2458Y1431D02*
X2496Y1431D01*
X2083Y1430D02*
X2122Y1430D01*
X2158Y1430D02*
X2196Y1430D01*
X2383Y1430D02*
X2422Y1430D01*
X2458Y1430D02*
X2496Y1430D01*
X2083Y1429D02*
X2122Y1429D01*
X2157Y1429D02*
X2196Y1429D01*
X2383Y1429D02*
X2422Y1429D01*
X2457Y1429D02*
X2496Y1429D01*
X2084Y1428D02*
X2123Y1428D01*
X2157Y1428D02*
X2196Y1428D01*
X2383Y1428D02*
X2423Y1428D01*
X2457Y1428D02*
X2496Y1428D01*
X2084Y1427D02*
X2123Y1427D01*
X2156Y1427D02*
X2195Y1427D01*
X2384Y1427D02*
X2423Y1427D01*
X2456Y1427D02*
X2495Y1427D01*
X2084Y1426D02*
X2124Y1426D01*
X2155Y1426D02*
X2195Y1426D01*
X2384Y1426D02*
X2424Y1426D01*
X2455Y1426D02*
X2495Y1426D01*
X2085Y1425D02*
X2125Y1425D01*
X2154Y1425D02*
X2194Y1425D01*
X2385Y1425D02*
X2425Y1425D01*
X2454Y1425D02*
X2494Y1425D01*
X2085Y1424D02*
X2126Y1424D01*
X2153Y1424D02*
X2194Y1424D01*
X2385Y1424D02*
X2426Y1424D01*
X2453Y1424D02*
X2494Y1424D01*
X2086Y1423D02*
X2127Y1423D01*
X2152Y1423D02*
X2193Y1423D01*
X2386Y1423D02*
X2427Y1423D01*
X2452Y1423D02*
X2493Y1423D01*
X2086Y1422D02*
X2128Y1422D01*
X2151Y1422D02*
X2193Y1422D01*
X2386Y1422D02*
X2428Y1422D01*
X2451Y1422D02*
X2493Y1422D01*
X2087Y1421D02*
X2130Y1421D01*
X2149Y1421D02*
X2192Y1421D01*
X2387Y1421D02*
X2430Y1421D01*
X2449Y1421D02*
X2492Y1421D01*
X2088Y1420D02*
X2132Y1420D01*
X2148Y1420D02*
X2191Y1420D01*
X2388Y1420D02*
X2432Y1420D01*
X2448Y1420D02*
X2491Y1420D01*
X2089Y1419D02*
X2135Y1419D01*
X2144Y1419D02*
X2191Y1419D01*
X2389Y1419D02*
X2435Y1419D01*
X2444Y1419D02*
X2491Y1419D01*
X2089Y1418D02*
X2190Y1418D01*
X2389Y1418D02*
X2490Y1418D01*
X2090Y1417D02*
X2189Y1417D01*
X2390Y1417D02*
X2489Y1417D01*
X2091Y1416D02*
X2188Y1416D01*
X2391Y1416D02*
X2488Y1416D01*
X2093Y1415D02*
X2187Y1415D01*
X2393Y1415D02*
X2487Y1415D01*
X2094Y1414D02*
X2185Y1414D01*
X2394Y1414D02*
X2485Y1414D01*
X2095Y1413D02*
X2184Y1413D01*
X2395Y1413D02*
X2484Y1413D01*
X2097Y1412D02*
X2182Y1412D01*
X2397Y1412D02*
X2482Y1412D01*
X2099Y1411D02*
X2180Y1411D01*
X2399Y1411D02*
X2480Y1411D01*
X2102Y1410D02*
X2178Y1410D01*
X2402Y1410D02*
X2478Y1410D01*
X2105Y1409D02*
X2174Y1409D01*
X2405Y1409D02*
X2474Y1409D01*
X2105Y1366D02*
X2174Y1366D01*
X2405Y1366D02*
X2474Y1366D01*
X2101Y1365D02*
X2178Y1365D01*
X2401Y1365D02*
X2478Y1365D01*
X2099Y1364D02*
X2180Y1364D01*
X2399Y1364D02*
X2480Y1364D01*
X2097Y1363D02*
X2182Y1363D01*
X2397Y1363D02*
X2482Y1363D01*
X2095Y1362D02*
X2184Y1362D01*
X2395Y1362D02*
X2484Y1362D01*
X2094Y1361D02*
X2185Y1361D01*
X2394Y1361D02*
X2485Y1361D01*
X2092Y1360D02*
X2187Y1360D01*
X2392Y1360D02*
X2487Y1360D01*
X2091Y1359D02*
X2188Y1359D01*
X2391Y1359D02*
X2488Y1359D01*
X2090Y1358D02*
X2189Y1358D01*
X2390Y1358D02*
X2489Y1358D01*
X2089Y1357D02*
X2190Y1357D01*
X2389Y1357D02*
X2490Y1357D01*
X2088Y1356D02*
X2134Y1356D01*
X2145Y1356D02*
X2191Y1356D01*
X2388Y1356D02*
X2434Y1356D01*
X2445Y1356D02*
X2491Y1356D01*
X2088Y1355D02*
X2131Y1355D01*
X2148Y1355D02*
X2191Y1355D01*
X2388Y1355D02*
X2431Y1355D01*
X2448Y1355D02*
X2491Y1355D01*
X2087Y1354D02*
X2130Y1354D01*
X2150Y1354D02*
X2192Y1354D01*
X2387Y1354D02*
X2430Y1354D01*
X2450Y1354D02*
X2492Y1354D01*
X2086Y1353D02*
X2128Y1353D01*
X2151Y1353D02*
X2193Y1353D01*
X2386Y1353D02*
X2428Y1353D01*
X2451Y1353D02*
X2493Y1353D01*
X2086Y1352D02*
X2127Y1352D01*
X2152Y1352D02*
X2193Y1352D01*
X2386Y1352D02*
X2427Y1352D01*
X2452Y1352D02*
X2493Y1352D01*
X2085Y1351D02*
X2126Y1351D01*
X2154Y1351D02*
X2194Y1351D01*
X2385Y1351D02*
X2426Y1351D01*
X2454Y1351D02*
X2494Y1351D01*
X2085Y1350D02*
X2125Y1350D01*
X2154Y1350D02*
X2194Y1350D01*
X2385Y1350D02*
X2425Y1350D01*
X2454Y1350D02*
X2494Y1350D01*
X2084Y1349D02*
X2124Y1349D01*
X2155Y1349D02*
X2195Y1349D01*
X2384Y1349D02*
X2424Y1349D01*
X2455Y1349D02*
X2495Y1349D01*
X2084Y1348D02*
X2123Y1348D01*
X2156Y1348D02*
X2195Y1348D01*
X2384Y1348D02*
X2423Y1348D01*
X2456Y1348D02*
X2495Y1348D01*
X2083Y1347D02*
X2123Y1347D01*
X2157Y1347D02*
X2196Y1347D01*
X2383Y1347D02*
X2423Y1347D01*
X2457Y1347D02*
X2496Y1347D01*
X2083Y1346D02*
X2122Y1346D01*
X2157Y1346D02*
X2196Y1346D01*
X2383Y1346D02*
X2422Y1346D01*
X2457Y1346D02*
X2496Y1346D01*
X2083Y1345D02*
X2122Y1345D01*
X2158Y1345D02*
X2196Y1345D01*
X2383Y1345D02*
X2422Y1345D01*
X2458Y1345D02*
X2496Y1345D01*
X2083Y1344D02*
X2121Y1344D01*
X2158Y1344D02*
X2197Y1344D01*
X2383Y1344D02*
X2421Y1344D01*
X2458Y1344D02*
X2497Y1344D01*
X2082Y1343D02*
X2121Y1343D01*
X2158Y1343D02*
X2197Y1343D01*
X2382Y1343D02*
X2421Y1343D01*
X2458Y1343D02*
X2497Y1343D01*
X2082Y1342D02*
X2121Y1342D01*
X2159Y1342D02*
X2197Y1342D01*
X2382Y1342D02*
X2421Y1342D01*
X2459Y1342D02*
X2497Y1342D01*
X2082Y1341D02*
X2120Y1341D01*
X2159Y1341D02*
X2197Y1341D01*
X2382Y1341D02*
X2420Y1341D01*
X2459Y1341D02*
X2497Y1341D01*
X2082Y1340D02*
X2120Y1340D01*
X2159Y1340D02*
X2197Y1340D01*
X2382Y1340D02*
X2420Y1340D01*
X2459Y1340D02*
X2497Y1340D01*
X2082Y1339D02*
X2120Y1339D01*
X2159Y1339D02*
X2197Y1339D01*
X2382Y1339D02*
X2420Y1339D01*
X2459Y1339D02*
X2497Y1339D01*
X2082Y1338D02*
X2120Y1338D01*
X2159Y1338D02*
X2197Y1338D01*
X2382Y1338D02*
X2420Y1338D01*
X2459Y1338D02*
X2497Y1338D01*
X2082Y1337D02*
X2120Y1337D01*
X2159Y1337D02*
X2197Y1337D01*
X2382Y1337D02*
X2420Y1337D01*
X2459Y1337D02*
X2497Y1337D01*
X2082Y1336D02*
X2120Y1336D01*
X2159Y1336D02*
X2197Y1336D01*
X2382Y1336D02*
X2420Y1336D01*
X2459Y1336D02*
X2497Y1336D01*
X2082Y1335D02*
X2120Y1335D01*
X2159Y1335D02*
X2197Y1335D01*
X2382Y1335D02*
X2420Y1335D01*
X2459Y1335D02*
X2497Y1335D01*
X2082Y1334D02*
X2120Y1334D01*
X2159Y1334D02*
X2197Y1334D01*
X2382Y1334D02*
X2420Y1334D01*
X2459Y1334D02*
X2497Y1334D01*
X2082Y1333D02*
X2121Y1333D01*
X2159Y1333D02*
X2197Y1333D01*
X2382Y1333D02*
X2421Y1333D01*
X2459Y1333D02*
X2497Y1333D01*
X2082Y1332D02*
X2121Y1332D01*
X2158Y1332D02*
X2197Y1332D01*
X2382Y1332D02*
X2421Y1332D01*
X2458Y1332D02*
X2497Y1332D01*
X2083Y1331D02*
X2121Y1331D01*
X2158Y1331D02*
X2196Y1331D01*
X2383Y1331D02*
X2421Y1331D01*
X2458Y1331D02*
X2496Y1331D01*
X2083Y1330D02*
X2122Y1330D01*
X2158Y1330D02*
X2196Y1330D01*
X2383Y1330D02*
X2422Y1330D01*
X2458Y1330D02*
X2496Y1330D01*
X2083Y1329D02*
X2122Y1329D01*
X2157Y1329D02*
X2196Y1329D01*
X2383Y1329D02*
X2422Y1329D01*
X2457Y1329D02*
X2496Y1329D01*
X2084Y1328D02*
X2123Y1328D01*
X2157Y1328D02*
X2196Y1328D01*
X2384Y1328D02*
X2423Y1328D01*
X2456Y1328D02*
X2496Y1328D01*
X2084Y1327D02*
X2123Y1327D01*
X2156Y1327D02*
X2195Y1327D01*
X2384Y1327D02*
X2423Y1327D01*
X2456Y1327D02*
X2495Y1327D01*
X2084Y1326D02*
X2124Y1326D01*
X2155Y1326D02*
X2195Y1326D01*
X2384Y1326D02*
X2424Y1326D01*
X2455Y1326D02*
X2495Y1326D01*
X2085Y1325D02*
X2125Y1325D01*
X2154Y1325D02*
X2194Y1325D01*
X2385Y1325D02*
X2425Y1325D01*
X2454Y1325D02*
X2494Y1325D01*
X2085Y1324D02*
X2126Y1324D01*
X2153Y1324D02*
X2194Y1324D01*
X2385Y1324D02*
X2426Y1324D01*
X2453Y1324D02*
X2494Y1324D01*
X2086Y1323D02*
X2127Y1323D01*
X2152Y1323D02*
X2193Y1323D01*
X2386Y1323D02*
X2427Y1323D01*
X2452Y1323D02*
X2493Y1323D01*
X2086Y1322D02*
X2128Y1322D01*
X2151Y1322D02*
X2193Y1322D01*
X2386Y1322D02*
X2428Y1322D01*
X2451Y1322D02*
X2493Y1322D01*
X2087Y1321D02*
X2130Y1321D01*
X2149Y1321D02*
X2192Y1321D01*
X2387Y1321D02*
X2430Y1321D01*
X2449Y1321D02*
X2492Y1321D01*
X2088Y1320D02*
X2132Y1320D01*
X2147Y1320D02*
X2191Y1320D01*
X2388Y1320D02*
X2432Y1320D01*
X2447Y1320D02*
X2491Y1320D01*
X2089Y1319D02*
X2135Y1319D01*
X2144Y1319D02*
X2191Y1319D01*
X2389Y1319D02*
X2435Y1319D01*
X2444Y1319D02*
X2491Y1319D01*
X2089Y1318D02*
X2190Y1318D01*
X2389Y1318D02*
X2490Y1318D01*
X2090Y1317D02*
X2189Y1317D01*
X2390Y1317D02*
X2489Y1317D01*
X2091Y1316D02*
X2188Y1316D01*
X2391Y1316D02*
X2488Y1316D01*
X2093Y1315D02*
X2187Y1315D01*
X2393Y1315D02*
X2487Y1315D01*
X2094Y1314D02*
X2185Y1314D01*
X2394Y1314D02*
X2485Y1314D01*
X2095Y1313D02*
X2184Y1313D01*
X2395Y1313D02*
X2484Y1313D01*
X2097Y1312D02*
X2182Y1312D01*
X2397Y1312D02*
X2482Y1312D01*
X2099Y1311D02*
X2180Y1311D01*
X2399Y1311D02*
X2480Y1311D01*
X2102Y1310D02*
X2177Y1310D01*
X2402Y1310D02*
X2477Y1310D01*
X2106Y1309D02*
X2174Y1309D01*
X2406Y1309D02*
X2474Y1309D01*
X2105Y1266D02*
X2174Y1266D01*
X2405Y1266D02*
X2474Y1266D01*
X2101Y1265D02*
X2178Y1265D01*
X2401Y1265D02*
X2478Y1265D01*
X2099Y1264D02*
X2180Y1264D01*
X2399Y1264D02*
X2480Y1264D01*
X2097Y1263D02*
X2182Y1263D01*
X2397Y1263D02*
X2482Y1263D01*
X2095Y1262D02*
X2184Y1262D01*
X2395Y1262D02*
X2484Y1262D01*
X2094Y1261D02*
X2185Y1261D01*
X2394Y1261D02*
X2485Y1261D01*
X2092Y1260D02*
X2187Y1260D01*
X2392Y1260D02*
X2487Y1260D01*
X2091Y1259D02*
X2188Y1259D01*
X2391Y1259D02*
X2488Y1259D01*
X2090Y1258D02*
X2189Y1258D01*
X2390Y1258D02*
X2489Y1258D01*
X2089Y1257D02*
X2190Y1257D01*
X2389Y1257D02*
X2490Y1257D01*
X2088Y1256D02*
X2134Y1256D01*
X2145Y1256D02*
X2191Y1256D01*
X2388Y1256D02*
X2434Y1256D01*
X2445Y1256D02*
X2491Y1256D01*
X2088Y1255D02*
X2131Y1255D01*
X2148Y1255D02*
X2191Y1255D01*
X2388Y1255D02*
X2431Y1255D01*
X2448Y1255D02*
X2491Y1255D01*
X2087Y1254D02*
X2129Y1254D01*
X2150Y1254D02*
X2192Y1254D01*
X2387Y1254D02*
X2429Y1254D01*
X2450Y1254D02*
X2492Y1254D01*
X2086Y1253D02*
X2128Y1253D01*
X2151Y1253D02*
X2193Y1253D01*
X2386Y1253D02*
X2428Y1253D01*
X2451Y1253D02*
X2493Y1253D01*
X2086Y1252D02*
X2127Y1252D01*
X2152Y1252D02*
X2193Y1252D01*
X2386Y1252D02*
X2427Y1252D01*
X2452Y1252D02*
X2493Y1252D01*
X2085Y1251D02*
X2126Y1251D01*
X2154Y1251D02*
X2194Y1251D01*
X2385Y1251D02*
X2426Y1251D01*
X2454Y1251D02*
X2494Y1251D01*
X2085Y1250D02*
X2125Y1250D01*
X2154Y1250D02*
X2194Y1250D01*
X2385Y1250D02*
X2425Y1250D01*
X2454Y1250D02*
X2494Y1250D01*
X2084Y1249D02*
X2124Y1249D01*
X2155Y1249D02*
X2195Y1249D01*
X2384Y1249D02*
X2424Y1249D01*
X2455Y1249D02*
X2495Y1249D01*
X2084Y1248D02*
X2123Y1248D01*
X2156Y1248D02*
X2195Y1248D01*
X2384Y1248D02*
X2423Y1248D01*
X2456Y1248D02*
X2495Y1248D01*
X2083Y1247D02*
X2123Y1247D01*
X2157Y1247D02*
X2196Y1247D01*
X2383Y1247D02*
X2423Y1247D01*
X2457Y1247D02*
X2496Y1247D01*
X2083Y1246D02*
X2122Y1246D01*
X2157Y1246D02*
X2196Y1246D01*
X2383Y1246D02*
X2422Y1246D01*
X2457Y1246D02*
X2496Y1246D01*
X2083Y1245D02*
X2122Y1245D01*
X2158Y1245D02*
X2196Y1245D01*
X2383Y1245D02*
X2421Y1245D01*
X2458Y1245D02*
X2496Y1245D01*
X2083Y1244D02*
X2121Y1244D01*
X2158Y1244D02*
X2197Y1244D01*
X2383Y1244D02*
X2421Y1244D01*
X2458Y1244D02*
X2497Y1244D01*
X2082Y1243D02*
X2121Y1243D01*
X2158Y1243D02*
X2197Y1243D01*
X2382Y1243D02*
X2421Y1243D01*
X2458Y1243D02*
X2497Y1243D01*
X2082Y1242D02*
X2121Y1242D01*
X2159Y1242D02*
X2197Y1242D01*
X2382Y1242D02*
X2421Y1242D01*
X2459Y1242D02*
X2497Y1242D01*
X2082Y1241D02*
X2120Y1241D01*
X2159Y1241D02*
X2197Y1241D01*
X2382Y1241D02*
X2420Y1241D01*
X2459Y1241D02*
X2497Y1241D01*
X2082Y1240D02*
X2120Y1240D01*
X2159Y1240D02*
X2197Y1240D01*
X2382Y1240D02*
X2420Y1240D01*
X2459Y1240D02*
X2497Y1240D01*
X2082Y1239D02*
X2120Y1239D01*
X2159Y1239D02*
X2197Y1239D01*
X2382Y1239D02*
X2420Y1239D01*
X2459Y1239D02*
X2497Y1239D01*
X2082Y1238D02*
X2120Y1238D01*
X2159Y1238D02*
X2197Y1238D01*
X2382Y1238D02*
X2420Y1238D01*
X2459Y1238D02*
X2497Y1238D01*
X2082Y1237D02*
X2120Y1237D01*
X2159Y1237D02*
X2197Y1237D01*
X2382Y1237D02*
X2420Y1237D01*
X2459Y1237D02*
X2497Y1237D01*
X2082Y1236D02*
X2120Y1236D01*
X2159Y1236D02*
X2197Y1236D01*
X2382Y1236D02*
X2420Y1236D01*
X2459Y1236D02*
X2497Y1236D01*
X2082Y1235D02*
X2120Y1235D01*
X2159Y1235D02*
X2197Y1235D01*
X2382Y1235D02*
X2420Y1235D01*
X2459Y1235D02*
X2497Y1235D01*
X2082Y1234D02*
X2120Y1234D01*
X2159Y1234D02*
X2197Y1234D01*
X2382Y1234D02*
X2420Y1234D01*
X2459Y1234D02*
X2497Y1234D01*
X2082Y1233D02*
X2121Y1233D01*
X2159Y1233D02*
X2197Y1233D01*
X2382Y1233D02*
X2421Y1233D01*
X2459Y1233D02*
X2497Y1233D01*
X2082Y1232D02*
X2121Y1232D01*
X2158Y1232D02*
X2197Y1232D01*
X2382Y1232D02*
X2421Y1232D01*
X2458Y1232D02*
X2497Y1232D01*
X2083Y1231D02*
X2121Y1231D01*
X2158Y1231D02*
X2196Y1231D01*
X2383Y1231D02*
X2421Y1231D01*
X2458Y1231D02*
X2496Y1231D01*
X2083Y1230D02*
X2122Y1230D01*
X2158Y1230D02*
X2196Y1230D01*
X2383Y1230D02*
X2422Y1230D01*
X2458Y1230D02*
X2496Y1230D01*
X2083Y1229D02*
X2122Y1229D01*
X2157Y1229D02*
X2196Y1229D01*
X2383Y1229D02*
X2422Y1229D01*
X2457Y1229D02*
X2496Y1229D01*
X2084Y1228D02*
X2123Y1228D01*
X2156Y1228D02*
X2196Y1228D01*
X2384Y1228D02*
X2423Y1228D01*
X2456Y1228D02*
X2496Y1228D01*
X2084Y1227D02*
X2123Y1227D01*
X2156Y1227D02*
X2195Y1227D01*
X2384Y1227D02*
X2423Y1227D01*
X2456Y1227D02*
X2495Y1227D01*
X2084Y1226D02*
X2124Y1226D01*
X2155Y1226D02*
X2195Y1226D01*
X2384Y1226D02*
X2424Y1226D01*
X2455Y1226D02*
X2495Y1226D01*
X2085Y1225D02*
X2125Y1225D01*
X2154Y1225D02*
X2194Y1225D01*
X2385Y1225D02*
X2425Y1225D01*
X2454Y1225D02*
X2494Y1225D01*
X2085Y1224D02*
X2126Y1224D01*
X2153Y1224D02*
X2194Y1224D01*
X2385Y1224D02*
X2426Y1224D01*
X2453Y1224D02*
X2494Y1224D01*
X2086Y1223D02*
X2127Y1223D01*
X2152Y1223D02*
X2193Y1223D01*
X2386Y1223D02*
X2427Y1223D01*
X2452Y1223D02*
X2493Y1223D01*
X2086Y1222D02*
X2128Y1222D01*
X2151Y1222D02*
X2193Y1222D01*
X2386Y1222D02*
X2428Y1222D01*
X2451Y1222D02*
X2493Y1222D01*
X2087Y1221D02*
X2130Y1221D01*
X2149Y1221D02*
X2192Y1221D01*
X2387Y1221D02*
X2430Y1221D01*
X2449Y1221D02*
X2492Y1221D01*
X2088Y1220D02*
X2132Y1220D01*
X2147Y1220D02*
X2191Y1220D01*
X2388Y1220D02*
X2432Y1220D01*
X2447Y1220D02*
X2491Y1220D01*
X2089Y1219D02*
X2135Y1219D01*
X2144Y1219D02*
X2191Y1219D01*
X2389Y1219D02*
X2435Y1219D01*
X2444Y1219D02*
X2491Y1219D01*
X2090Y1218D02*
X2190Y1218D01*
X2390Y1218D02*
X2490Y1218D01*
X2090Y1217D02*
X2189Y1217D01*
X2390Y1217D02*
X2489Y1217D01*
X2092Y1216D02*
X2188Y1216D01*
X2392Y1216D02*
X2488Y1216D01*
X2093Y1215D02*
X2186Y1215D01*
X2393Y1215D02*
X2486Y1215D01*
X2094Y1214D02*
X2185Y1214D01*
X2394Y1214D02*
X2485Y1214D01*
X2095Y1213D02*
X2184Y1213D01*
X2395Y1213D02*
X2484Y1213D01*
X2097Y1212D02*
X2182Y1212D01*
X2397Y1212D02*
X2482Y1212D01*
X2099Y1211D02*
X2180Y1211D01*
X2399Y1211D02*
X2480Y1211D01*
X2102Y1210D02*
X2177Y1210D01*
X2402Y1210D02*
X2477Y1210D01*
X2106Y1209D02*
X2173Y1209D01*
X2406Y1209D02*
X2473Y1209D01*
X1108Y670D02*
X1171Y670D01*
X1108Y669D02*
X1172Y669D01*
X1108Y668D02*
X1172Y668D01*
X1108Y667D02*
X1172Y667D01*
X1108Y666D02*
X1172Y666D01*
X1108Y665D02*
X1172Y665D01*
X1108Y664D02*
X1172Y664D01*
X1108Y663D02*
X1172Y663D01*
X1108Y662D02*
X1172Y662D01*
X1108Y661D02*
X1172Y661D01*
X1108Y660D02*
X1172Y660D01*
X1108Y659D02*
X1172Y659D01*
X1108Y658D02*
X1172Y658D01*
X1108Y657D02*
X1172Y657D01*
X1108Y656D02*
X1172Y656D01*
X1108Y655D02*
X1172Y655D01*
X1108Y654D02*
X1172Y654D01*
X1108Y653D02*
X1172Y653D01*
X1108Y652D02*
X1172Y652D01*
X1108Y651D02*
X1135Y651D01*
X1144Y651D02*
X1172Y651D01*
X1108Y650D02*
X1133Y650D01*
X1146Y650D02*
X1172Y650D01*
X1108Y649D02*
X1131Y649D01*
X1148Y649D02*
X1172Y649D01*
X1108Y648D02*
X1130Y648D01*
X1149Y648D02*
X1172Y648D01*
X1108Y647D02*
X1129Y647D01*
X1150Y647D02*
X1172Y647D01*
X1108Y646D02*
X1128Y646D01*
X1151Y646D02*
X1172Y646D01*
X1108Y645D02*
X1127Y645D01*
X1152Y645D02*
X1172Y645D01*
X1108Y644D02*
X1127Y644D01*
X1152Y644D02*
X1172Y644D01*
X1108Y643D02*
X1126Y643D01*
X1153Y643D02*
X1172Y643D01*
X1108Y642D02*
X1126Y642D01*
X1153Y642D02*
X1172Y642D01*
X1108Y641D02*
X1126Y641D01*
X1154Y641D02*
X1172Y641D01*
X1108Y640D02*
X1125Y640D01*
X1154Y640D02*
X1172Y640D01*
X1108Y639D02*
X1125Y639D01*
X1154Y639D02*
X1172Y639D01*
X1108Y638D02*
X1125Y638D01*
X1154Y638D02*
X1172Y638D01*
X1108Y637D02*
X1125Y637D01*
X1154Y637D02*
X1172Y637D01*
X1108Y636D02*
X1125Y636D01*
X1154Y636D02*
X1172Y636D01*
X1108Y635D02*
X1126Y635D01*
X1154Y635D02*
X1172Y635D01*
X1108Y634D02*
X1126Y634D01*
X1153Y634D02*
X1172Y634D01*
X1108Y633D02*
X1126Y633D01*
X1153Y633D02*
X1172Y633D01*
X1108Y632D02*
X1127Y632D01*
X1152Y632D02*
X1172Y632D01*
X1108Y631D02*
X1127Y631D01*
X1152Y631D02*
X1172Y631D01*
X1108Y630D02*
X1128Y630D01*
X1151Y630D02*
X1172Y630D01*
X1108Y629D02*
X1129Y629D01*
X1151Y629D02*
X1172Y629D01*
X1108Y628D02*
X1129Y628D01*
X1150Y628D02*
X1172Y628D01*
X1108Y627D02*
X1131Y627D01*
X1148Y627D02*
X1172Y627D01*
X1108Y626D02*
X1132Y626D01*
X1147Y626D02*
X1172Y626D01*
X1108Y625D02*
X1134Y625D01*
X1145Y625D02*
X1172Y625D01*
X1108Y624D02*
X1172Y624D01*
X1108Y623D02*
X1172Y623D01*
X1108Y622D02*
X1172Y622D01*
X1108Y621D02*
X1172Y621D01*
X1108Y620D02*
X1172Y620D01*
X1108Y619D02*
X1172Y619D01*
X1108Y618D02*
X1172Y618D01*
X1108Y617D02*
X1172Y617D01*
X1108Y616D02*
X1172Y616D01*
X1108Y615D02*
X1172Y615D01*
X1108Y614D02*
X1172Y614D01*
X1108Y613D02*
X1172Y613D01*
X1108Y612D02*
X1172Y612D01*
X1108Y611D02*
X1172Y611D01*
X1108Y610D02*
X1172Y610D01*
X1108Y609D02*
X1172Y609D01*
X1108Y608D02*
X1172Y608D01*
X1108Y607D02*
X1172Y607D01*
X1108Y606D02*
X1172Y606D01*
X1803Y574D02*
X1876Y574D01*
X1803Y573D02*
X1876Y573D01*
X1803Y572D02*
X1876Y572D01*
X1803Y571D02*
X1876Y571D01*
X1803Y570D02*
X1876Y570D01*
X1803Y569D02*
X1876Y569D01*
X1803Y568D02*
X1876Y568D01*
X1803Y567D02*
X1876Y567D01*
X1803Y566D02*
X1876Y566D01*
X1803Y565D02*
X1876Y565D01*
X1803Y564D02*
X1876Y564D01*
X1803Y563D02*
X1876Y563D01*
X1803Y562D02*
X1876Y562D01*
X1803Y561D02*
X1876Y561D01*
X1803Y560D02*
X1876Y560D01*
X1803Y559D02*
X1876Y559D01*
X1803Y558D02*
X1876Y558D01*
X1803Y557D02*
X1834Y557D01*
X1846Y557D02*
X1876Y557D01*
X1803Y556D02*
X1831Y556D01*
X1848Y556D02*
X1876Y556D01*
X1803Y555D02*
X1829Y555D01*
X1850Y555D02*
X1876Y555D01*
X1803Y554D02*
X1827Y554D01*
X1852Y554D02*
X1876Y554D01*
X1803Y553D02*
X1826Y553D01*
X1853Y553D02*
X1876Y553D01*
X1803Y552D02*
X1825Y552D01*
X1854Y552D02*
X1876Y552D01*
X1803Y551D02*
X1824Y551D01*
X1855Y551D02*
X1876Y551D01*
X1803Y550D02*
X1823Y550D01*
X1856Y550D02*
X1876Y550D01*
X1803Y549D02*
X1823Y549D01*
X1857Y549D02*
X1876Y549D01*
X1803Y548D02*
X1822Y548D01*
X1857Y548D02*
X1876Y548D01*
X1803Y547D02*
X1821Y547D01*
X1858Y547D02*
X1876Y547D01*
X1803Y546D02*
X1821Y546D01*
X1858Y546D02*
X1876Y546D01*
X1803Y545D02*
X1820Y545D01*
X1859Y545D02*
X1876Y545D01*
X1803Y544D02*
X1820Y544D01*
X1859Y544D02*
X1876Y544D01*
X1803Y543D02*
X1820Y543D01*
X1859Y543D02*
X1876Y543D01*
X1803Y542D02*
X1820Y542D01*
X1860Y542D02*
X1876Y542D01*
X1803Y541D02*
X1819Y541D01*
X1860Y541D02*
X1876Y541D01*
X1803Y540D02*
X1819Y540D01*
X1860Y540D02*
X1876Y540D01*
X1803Y539D02*
X1819Y539D01*
X1860Y539D02*
X1876Y539D01*
X1803Y538D02*
X1819Y538D01*
X1860Y538D02*
X1876Y538D01*
X1803Y537D02*
X1819Y537D01*
X1860Y537D02*
X1876Y537D01*
X1803Y536D02*
X1819Y536D01*
X1860Y536D02*
X1876Y536D01*
X1803Y535D02*
X1819Y535D01*
X1860Y535D02*
X1876Y535D01*
X1803Y534D02*
X1819Y534D01*
X1860Y534D02*
X1876Y534D01*
X1803Y533D02*
X1820Y533D01*
X1859Y533D02*
X1876Y533D01*
X1803Y532D02*
X1820Y532D01*
X1859Y532D02*
X1876Y532D01*
X1803Y531D02*
X1820Y531D01*
X1859Y531D02*
X1876Y531D01*
X1803Y530D02*
X1821Y530D01*
X1858Y530D02*
X1876Y530D01*
X1803Y529D02*
X1821Y529D01*
X1858Y529D02*
X1876Y529D01*
X1803Y528D02*
X1822Y528D01*
X1857Y528D02*
X1876Y528D01*
X1803Y527D02*
X1822Y527D01*
X1857Y527D02*
X1876Y527D01*
X1803Y526D02*
X1823Y526D01*
X1856Y526D02*
X1876Y526D01*
X1803Y525D02*
X1824Y525D01*
X1855Y525D02*
X1876Y525D01*
X1803Y524D02*
X1825Y524D01*
X1854Y524D02*
X1876Y524D01*
X1803Y523D02*
X1826Y523D01*
X1853Y523D02*
X1876Y523D01*
X1803Y522D02*
X1827Y522D01*
X1852Y522D02*
X1876Y522D01*
X1803Y521D02*
X1828Y521D01*
X1851Y521D02*
X1876Y521D01*
X1803Y520D02*
X1830Y520D01*
X1849Y520D02*
X1876Y520D01*
X1803Y519D02*
X1833Y519D01*
X1846Y519D02*
X1876Y519D01*
X1803Y518D02*
X1838Y518D01*
X1841Y518D02*
X1876Y518D01*
X1803Y517D02*
X1876Y517D01*
X1803Y516D02*
X1876Y516D01*
X1803Y515D02*
X1876Y515D01*
X1803Y514D02*
X1876Y514D01*
X1803Y513D02*
X1876Y513D01*
X1803Y512D02*
X1876Y512D01*
X1803Y511D02*
X1876Y511D01*
X1803Y510D02*
X1876Y510D01*
X1803Y509D02*
X1876Y509D01*
X1803Y508D02*
X1876Y508D01*
X1803Y507D02*
X1876Y507D01*
X1803Y506D02*
X1876Y506D01*
X1803Y505D02*
X1876Y505D01*
X1803Y504D02*
X1876Y504D01*
X1803Y503D02*
X1876Y503D01*
X1803Y502D02*
X1876Y502D01*
X1803Y501D02*
X1876Y501D01*
X803Y274D02*
X876Y274D01*
X1103Y274D02*
X1176Y274D01*
X1403Y274D02*
X1476Y274D01*
X1803Y274D02*
X1876Y274D01*
X803Y273D02*
X876Y273D01*
X1103Y273D02*
X1176Y273D01*
X1403Y273D02*
X1476Y273D01*
X1803Y273D02*
X1876Y273D01*
X803Y272D02*
X876Y272D01*
X1103Y272D02*
X1176Y272D01*
X1403Y272D02*
X1476Y272D01*
X1803Y272D02*
X1876Y272D01*
X803Y271D02*
X876Y271D01*
X1103Y271D02*
X1176Y271D01*
X1403Y271D02*
X1476Y271D01*
X1803Y271D02*
X1876Y271D01*
X803Y270D02*
X876Y270D01*
X1103Y270D02*
X1176Y270D01*
X1403Y270D02*
X1476Y270D01*
X1803Y270D02*
X1876Y270D01*
X803Y269D02*
X876Y269D01*
X1103Y269D02*
X1176Y269D01*
X1403Y269D02*
X1476Y269D01*
X1803Y269D02*
X1876Y269D01*
X803Y268D02*
X876Y268D01*
X1103Y268D02*
X1176Y268D01*
X1403Y268D02*
X1476Y268D01*
X1803Y268D02*
X1876Y268D01*
X803Y267D02*
X876Y267D01*
X1103Y267D02*
X1176Y267D01*
X1403Y267D02*
X1476Y267D01*
X1803Y267D02*
X1876Y267D01*
X803Y266D02*
X876Y266D01*
X1103Y266D02*
X1176Y266D01*
X1403Y266D02*
X1476Y266D01*
X1803Y266D02*
X1876Y266D01*
X803Y265D02*
X876Y265D01*
X1103Y265D02*
X1176Y265D01*
X1403Y265D02*
X1476Y265D01*
X1803Y265D02*
X1876Y265D01*
X803Y264D02*
X876Y264D01*
X1103Y264D02*
X1176Y264D01*
X1403Y264D02*
X1476Y264D01*
X1803Y264D02*
X1876Y264D01*
X803Y263D02*
X876Y263D01*
X1103Y263D02*
X1176Y263D01*
X1403Y263D02*
X1476Y263D01*
X1803Y263D02*
X1876Y263D01*
X803Y262D02*
X876Y262D01*
X1103Y262D02*
X1176Y262D01*
X1403Y262D02*
X1476Y262D01*
X1803Y262D02*
X1876Y262D01*
X803Y261D02*
X876Y261D01*
X1103Y261D02*
X1176Y261D01*
X1403Y261D02*
X1476Y261D01*
X1803Y261D02*
X1876Y261D01*
X803Y260D02*
X876Y260D01*
X1103Y260D02*
X1176Y260D01*
X1403Y260D02*
X1476Y260D01*
X1803Y260D02*
X1876Y260D01*
X803Y259D02*
X876Y259D01*
X1103Y259D02*
X1176Y259D01*
X1403Y259D02*
X1476Y259D01*
X1803Y259D02*
X1876Y259D01*
X803Y258D02*
X876Y258D01*
X1103Y258D02*
X1176Y258D01*
X1403Y258D02*
X1476Y258D01*
X1803Y258D02*
X1876Y258D01*
X803Y257D02*
X833Y257D01*
X846Y257D02*
X876Y257D01*
X1103Y257D02*
X1133Y257D01*
X1146Y257D02*
X1176Y257D01*
X1403Y257D02*
X1433Y257D01*
X1446Y257D02*
X1476Y257D01*
X1803Y257D02*
X1833Y257D01*
X1846Y257D02*
X1876Y257D01*
X803Y256D02*
X831Y256D01*
X849Y256D02*
X876Y256D01*
X1103Y256D02*
X1131Y256D01*
X1149Y256D02*
X1176Y256D01*
X1403Y256D02*
X1431Y256D01*
X1449Y256D02*
X1476Y256D01*
X1803Y256D02*
X1831Y256D01*
X1849Y256D02*
X1876Y256D01*
X803Y255D02*
X829Y255D01*
X850Y255D02*
X876Y255D01*
X1103Y255D02*
X1129Y255D01*
X1150Y255D02*
X1176Y255D01*
X1403Y255D02*
X1429Y255D01*
X1450Y255D02*
X1476Y255D01*
X1803Y255D02*
X1829Y255D01*
X1850Y255D02*
X1876Y255D01*
X803Y254D02*
X827Y254D01*
X852Y254D02*
X876Y254D01*
X1103Y254D02*
X1127Y254D01*
X1152Y254D02*
X1176Y254D01*
X1403Y254D02*
X1427Y254D01*
X1452Y254D02*
X1476Y254D01*
X1803Y254D02*
X1827Y254D01*
X1852Y254D02*
X1876Y254D01*
X803Y253D02*
X826Y253D01*
X853Y253D02*
X876Y253D01*
X1103Y253D02*
X1126Y253D01*
X1153Y253D02*
X1176Y253D01*
X1403Y253D02*
X1426Y253D01*
X1453Y253D02*
X1476Y253D01*
X1803Y253D02*
X1826Y253D01*
X1853Y253D02*
X1876Y253D01*
X803Y252D02*
X825Y252D01*
X854Y252D02*
X876Y252D01*
X1103Y252D02*
X1125Y252D01*
X1154Y252D02*
X1176Y252D01*
X1403Y252D02*
X1425Y252D01*
X1454Y252D02*
X1476Y252D01*
X1803Y252D02*
X1825Y252D01*
X1854Y252D02*
X1876Y252D01*
X803Y251D02*
X824Y251D01*
X855Y251D02*
X876Y251D01*
X1103Y251D02*
X1124Y251D01*
X1155Y251D02*
X1176Y251D01*
X1403Y251D02*
X1424Y251D01*
X1455Y251D02*
X1476Y251D01*
X1803Y251D02*
X1824Y251D01*
X1855Y251D02*
X1876Y251D01*
X803Y250D02*
X823Y250D01*
X856Y250D02*
X876Y250D01*
X1103Y250D02*
X1123Y250D01*
X1156Y250D02*
X1176Y250D01*
X1403Y250D02*
X1423Y250D01*
X1456Y250D02*
X1476Y250D01*
X1803Y250D02*
X1823Y250D01*
X1856Y250D02*
X1876Y250D01*
X803Y249D02*
X822Y249D01*
X857Y249D02*
X876Y249D01*
X1103Y249D02*
X1122Y249D01*
X1157Y249D02*
X1176Y249D01*
X1403Y249D02*
X1422Y249D01*
X1457Y249D02*
X1476Y249D01*
X1803Y249D02*
X1822Y249D01*
X1857Y249D02*
X1876Y249D01*
X803Y248D02*
X822Y248D01*
X857Y248D02*
X876Y248D01*
X1103Y248D02*
X1122Y248D01*
X1157Y248D02*
X1176Y248D01*
X1403Y248D02*
X1422Y248D01*
X1457Y248D02*
X1476Y248D01*
X1803Y248D02*
X1822Y248D01*
X1857Y248D02*
X1876Y248D01*
X803Y247D02*
X821Y247D01*
X858Y247D02*
X876Y247D01*
X1103Y247D02*
X1121Y247D01*
X1158Y247D02*
X1176Y247D01*
X1403Y247D02*
X1421Y247D01*
X1458Y247D02*
X1476Y247D01*
X1803Y247D02*
X1821Y247D01*
X1858Y247D02*
X1876Y247D01*
X803Y246D02*
X821Y246D01*
X858Y246D02*
X876Y246D01*
X1103Y246D02*
X1121Y246D01*
X1158Y246D02*
X1176Y246D01*
X1403Y246D02*
X1421Y246D01*
X1458Y246D02*
X1476Y246D01*
X1803Y246D02*
X1821Y246D01*
X1858Y246D02*
X1876Y246D01*
X803Y245D02*
X820Y245D01*
X859Y245D02*
X876Y245D01*
X1103Y245D02*
X1120Y245D01*
X1159Y245D02*
X1176Y245D01*
X1403Y245D02*
X1420Y245D01*
X1459Y245D02*
X1476Y245D01*
X1803Y245D02*
X1820Y245D01*
X1859Y245D02*
X1876Y245D01*
X803Y244D02*
X820Y244D01*
X859Y244D02*
X876Y244D01*
X1103Y244D02*
X1120Y244D01*
X1159Y244D02*
X1176Y244D01*
X1403Y244D02*
X1420Y244D01*
X1459Y244D02*
X1476Y244D01*
X1803Y244D02*
X1820Y244D01*
X1859Y244D02*
X1876Y244D01*
X803Y243D02*
X820Y243D01*
X859Y243D02*
X876Y243D01*
X1103Y243D02*
X1120Y243D01*
X1159Y243D02*
X1176Y243D01*
X1403Y243D02*
X1420Y243D01*
X1459Y243D02*
X1476Y243D01*
X1803Y243D02*
X1820Y243D01*
X1859Y243D02*
X1876Y243D01*
X803Y242D02*
X820Y242D01*
X860Y242D02*
X876Y242D01*
X1103Y242D02*
X1120Y242D01*
X1160Y242D02*
X1176Y242D01*
X1403Y242D02*
X1420Y242D01*
X1460Y242D02*
X1476Y242D01*
X1803Y242D02*
X1820Y242D01*
X1860Y242D02*
X1876Y242D01*
X803Y241D02*
X819Y241D01*
X860Y241D02*
X876Y241D01*
X1103Y241D02*
X1119Y241D01*
X1160Y241D02*
X1176Y241D01*
X1403Y241D02*
X1419Y241D01*
X1460Y241D02*
X1476Y241D01*
X1803Y241D02*
X1819Y241D01*
X1860Y241D02*
X1876Y241D01*
X803Y240D02*
X819Y240D01*
X860Y240D02*
X876Y240D01*
X1103Y240D02*
X1119Y240D01*
X1160Y240D02*
X1176Y240D01*
X1403Y240D02*
X1419Y240D01*
X1460Y240D02*
X1476Y240D01*
X1803Y240D02*
X1819Y240D01*
X1860Y240D02*
X1876Y240D01*
X803Y239D02*
X819Y239D01*
X860Y239D02*
X876Y239D01*
X1103Y239D02*
X1119Y239D01*
X1160Y239D02*
X1176Y239D01*
X1403Y239D02*
X1419Y239D01*
X1460Y239D02*
X1476Y239D01*
X1803Y239D02*
X1819Y239D01*
X1860Y239D02*
X1876Y239D01*
X803Y238D02*
X819Y238D01*
X860Y238D02*
X876Y238D01*
X1103Y238D02*
X1119Y238D01*
X1160Y238D02*
X1176Y238D01*
X1403Y238D02*
X1419Y238D01*
X1460Y238D02*
X1476Y238D01*
X1803Y238D02*
X1819Y238D01*
X1860Y238D02*
X1876Y238D01*
X803Y237D02*
X819Y237D01*
X860Y237D02*
X876Y237D01*
X1103Y237D02*
X1119Y237D01*
X1160Y237D02*
X1176Y237D01*
X1403Y237D02*
X1419Y237D01*
X1460Y237D02*
X1476Y237D01*
X1803Y237D02*
X1819Y237D01*
X1860Y237D02*
X1876Y237D01*
X803Y236D02*
X819Y236D01*
X860Y236D02*
X876Y236D01*
X1103Y236D02*
X1119Y236D01*
X1160Y236D02*
X1176Y236D01*
X1403Y236D02*
X1419Y236D01*
X1460Y236D02*
X1476Y236D01*
X1803Y236D02*
X1819Y236D01*
X1860Y236D02*
X1876Y236D01*
X803Y235D02*
X819Y235D01*
X860Y235D02*
X876Y235D01*
X1103Y235D02*
X1119Y235D01*
X1160Y235D02*
X1176Y235D01*
X1403Y235D02*
X1419Y235D01*
X1460Y235D02*
X1476Y235D01*
X1803Y235D02*
X1819Y235D01*
X1860Y235D02*
X1876Y235D01*
X803Y234D02*
X820Y234D01*
X860Y234D02*
X876Y234D01*
X1103Y234D02*
X1120Y234D01*
X1160Y234D02*
X1176Y234D01*
X1403Y234D02*
X1420Y234D01*
X1460Y234D02*
X1476Y234D01*
X1803Y234D02*
X1820Y234D01*
X1860Y234D02*
X1876Y234D01*
X803Y233D02*
X820Y233D01*
X859Y233D02*
X876Y233D01*
X1103Y233D02*
X1120Y233D01*
X1159Y233D02*
X1176Y233D01*
X1403Y233D02*
X1420Y233D01*
X1459Y233D02*
X1476Y233D01*
X1803Y233D02*
X1820Y233D01*
X1859Y233D02*
X1876Y233D01*
X803Y232D02*
X820Y232D01*
X859Y232D02*
X876Y232D01*
X1103Y232D02*
X1120Y232D01*
X1159Y232D02*
X1176Y232D01*
X1403Y232D02*
X1420Y232D01*
X1459Y232D02*
X1476Y232D01*
X1803Y232D02*
X1820Y232D01*
X1859Y232D02*
X1876Y232D01*
X803Y231D02*
X820Y231D01*
X859Y231D02*
X876Y231D01*
X1103Y231D02*
X1120Y231D01*
X1159Y231D02*
X1176Y231D01*
X1403Y231D02*
X1420Y231D01*
X1459Y231D02*
X1476Y231D01*
X1803Y231D02*
X1820Y231D01*
X1859Y231D02*
X1876Y231D01*
X803Y230D02*
X821Y230D01*
X858Y230D02*
X876Y230D01*
X1103Y230D02*
X1121Y230D01*
X1158Y230D02*
X1176Y230D01*
X1403Y230D02*
X1421Y230D01*
X1458Y230D02*
X1476Y230D01*
X1803Y230D02*
X1821Y230D01*
X1858Y230D02*
X1876Y230D01*
X803Y229D02*
X821Y229D01*
X858Y229D02*
X876Y229D01*
X1103Y229D02*
X1121Y229D01*
X1158Y229D02*
X1176Y229D01*
X1403Y229D02*
X1421Y229D01*
X1458Y229D02*
X1476Y229D01*
X1803Y229D02*
X1821Y229D01*
X1858Y229D02*
X1876Y229D01*
X803Y228D02*
X822Y228D01*
X857Y228D02*
X876Y228D01*
X1103Y228D02*
X1122Y228D01*
X1157Y228D02*
X1176Y228D01*
X1403Y228D02*
X1422Y228D01*
X1457Y228D02*
X1476Y228D01*
X1803Y228D02*
X1822Y228D01*
X1857Y228D02*
X1876Y228D01*
X803Y227D02*
X822Y227D01*
X857Y227D02*
X876Y227D01*
X1103Y227D02*
X1122Y227D01*
X1157Y227D02*
X1176Y227D01*
X1403Y227D02*
X1422Y227D01*
X1457Y227D02*
X1476Y227D01*
X1803Y227D02*
X1822Y227D01*
X1857Y227D02*
X1876Y227D01*
X803Y226D02*
X823Y226D01*
X856Y226D02*
X876Y226D01*
X1103Y226D02*
X1123Y226D01*
X1156Y226D02*
X1176Y226D01*
X1403Y226D02*
X1423Y226D01*
X1456Y226D02*
X1476Y226D01*
X1803Y226D02*
X1823Y226D01*
X1856Y226D02*
X1876Y226D01*
X803Y225D02*
X824Y225D01*
X855Y225D02*
X876Y225D01*
X1103Y225D02*
X1124Y225D01*
X1155Y225D02*
X1176Y225D01*
X1403Y225D02*
X1424Y225D01*
X1455Y225D02*
X1476Y225D01*
X1803Y225D02*
X1824Y225D01*
X1855Y225D02*
X1876Y225D01*
X803Y224D02*
X825Y224D01*
X854Y224D02*
X876Y224D01*
X1103Y224D02*
X1125Y224D01*
X1154Y224D02*
X1176Y224D01*
X1403Y224D02*
X1425Y224D01*
X1454Y224D02*
X1476Y224D01*
X1803Y224D02*
X1825Y224D01*
X1854Y224D02*
X1876Y224D01*
X803Y223D02*
X826Y223D01*
X853Y223D02*
X876Y223D01*
X1103Y223D02*
X1126Y223D01*
X1153Y223D02*
X1176Y223D01*
X1403Y223D02*
X1426Y223D01*
X1453Y223D02*
X1476Y223D01*
X1803Y223D02*
X1826Y223D01*
X1853Y223D02*
X1876Y223D01*
X803Y222D02*
X827Y222D01*
X852Y222D02*
X876Y222D01*
X1103Y222D02*
X1127Y222D01*
X1152Y222D02*
X1176Y222D01*
X1403Y222D02*
X1427Y222D01*
X1452Y222D02*
X1476Y222D01*
X1803Y222D02*
X1827Y222D01*
X1852Y222D02*
X1876Y222D01*
X803Y221D02*
X829Y221D01*
X851Y221D02*
X876Y221D01*
X1103Y221D02*
X1129Y221D01*
X1151Y221D02*
X1176Y221D01*
X1403Y221D02*
X1429Y221D01*
X1451Y221D02*
X1476Y221D01*
X1803Y221D02*
X1829Y221D01*
X1851Y221D02*
X1876Y221D01*
X803Y220D02*
X830Y220D01*
X849Y220D02*
X876Y220D01*
X1103Y220D02*
X1130Y220D01*
X1149Y220D02*
X1176Y220D01*
X1403Y220D02*
X1430Y220D01*
X1449Y220D02*
X1476Y220D01*
X1803Y220D02*
X1830Y220D01*
X1849Y220D02*
X1876Y220D01*
X803Y219D02*
X833Y219D01*
X846Y219D02*
X876Y219D01*
X1103Y219D02*
X1133Y219D01*
X1146Y219D02*
X1176Y219D01*
X1403Y219D02*
X1433Y219D01*
X1446Y219D02*
X1476Y219D01*
X1803Y219D02*
X1833Y219D01*
X1846Y219D02*
X1876Y219D01*
X803Y218D02*
X876Y218D01*
X1103Y218D02*
X1176Y218D01*
X1403Y218D02*
X1476Y218D01*
X1803Y218D02*
X1876Y218D01*
X803Y217D02*
X876Y217D01*
X1103Y217D02*
X1176Y217D01*
X1403Y217D02*
X1476Y217D01*
X1803Y217D02*
X1876Y217D01*
X803Y216D02*
X876Y216D01*
X1103Y216D02*
X1176Y216D01*
X1403Y216D02*
X1476Y216D01*
X1803Y216D02*
X1876Y216D01*
X803Y215D02*
X876Y215D01*
X1103Y215D02*
X1176Y215D01*
X1403Y215D02*
X1476Y215D01*
X1803Y215D02*
X1876Y215D01*
X803Y214D02*
X876Y214D01*
X1103Y214D02*
X1176Y214D01*
X1403Y214D02*
X1476Y214D01*
X1803Y214D02*
X1876Y214D01*
X803Y213D02*
X876Y213D01*
X1103Y213D02*
X1176Y213D01*
X1403Y213D02*
X1476Y213D01*
X1803Y213D02*
X1876Y213D01*
X803Y212D02*
X876Y212D01*
X1103Y212D02*
X1176Y212D01*
X1403Y212D02*
X1476Y212D01*
X1803Y212D02*
X1876Y212D01*
X803Y211D02*
X876Y211D01*
X1103Y211D02*
X1176Y211D01*
X1403Y211D02*
X1476Y211D01*
X1803Y211D02*
X1876Y211D01*
X803Y210D02*
X876Y210D01*
X1103Y210D02*
X1176Y210D01*
X1403Y210D02*
X1476Y210D01*
X1803Y210D02*
X1876Y210D01*
X803Y209D02*
X876Y209D01*
X1103Y209D02*
X1176Y209D01*
X1403Y209D02*
X1476Y209D01*
X1803Y209D02*
X1876Y209D01*
X803Y208D02*
X876Y208D01*
X1103Y208D02*
X1176Y208D01*
X1403Y208D02*
X1476Y208D01*
X1803Y208D02*
X1876Y208D01*
X803Y207D02*
X876Y207D01*
X1103Y207D02*
X1176Y207D01*
X1403Y207D02*
X1476Y207D01*
X1803Y207D02*
X1876Y207D01*
X803Y206D02*
X876Y206D01*
X1103Y206D02*
X1176Y206D01*
X1403Y206D02*
X1476Y206D01*
X1803Y206D02*
X1876Y206D01*
X803Y205D02*
X876Y205D01*
X1103Y205D02*
X1176Y205D01*
X1403Y205D02*
X1476Y205D01*
X1803Y205D02*
X1876Y205D01*
X803Y204D02*
X876Y204D01*
X1103Y204D02*
X1176Y204D01*
X1403Y204D02*
X1476Y204D01*
X1803Y204D02*
X1876Y204D01*
X803Y203D02*
X876Y203D01*
X1103Y203D02*
X1176Y203D01*
X1403Y203D02*
X1476Y203D01*
X1803Y203D02*
X1876Y203D01*
X803Y202D02*
X876Y202D01*
X1103Y202D02*
X1176Y202D01*
X1403Y202D02*
X1476Y202D01*
X1803Y202D02*
X1876Y202D01*
X804Y201D02*
X876Y201D01*
X1104Y201D02*
X1176Y201D01*
X1404Y201D02*
X1476Y201D01*
X1804Y201D02*
X1876Y201D01*
D02*
G04 End of Copper0*
M02*