; NON-PLATED HOLES START AT T1
; THROUGH (PLATED) HOLES START AT T100
M48
INCH
T1C0.086614
T100C0.038189
T101C0.025000
T102C0.027559
T103C0.015748
T104C0.038000
T105C0.040000
T106C0.036000
T107C0.035000
%
T1
X024789Y016578
X000744Y016578
X024802Y000746
X000755Y000748
T100
X021401Y015238
X021401Y013238
X024401Y014238
X024401Y012238
X021401Y014238
X024401Y015238
X021401Y012238
X024401Y013238
T101
X004186Y002272
X001824Y002272
X003398Y002272
X002612Y002272
T102
X011401Y005238
X011401Y006238
T103
X002910Y012263
X007950Y013943
X019950Y006023
X013470Y003863
X008910Y000503
X021630Y009623
X009870Y006263
T104
X022401Y002238
X001401Y014238
X023401Y002238
X001401Y015238
X001401Y010238
X001401Y011238
X001401Y012238
X001401Y009238
X001401Y013238
X021401Y002238
T105
X022401Y008238
X017401Y002338
X022401Y005238
X018401Y005238
X018401Y002238
X023401Y006238
X016401Y002238
X013301Y002238
X007301Y002238
X010301Y002238
X022401Y007239
X018401Y007239
X023401Y008238
X023401Y005238
X022401Y006238
X014401Y002238
X018501Y006238
X023401Y007239
X008401Y002238
X011401Y002238
T106
X006401Y009238
X018401Y015238
X005401Y009238
X016401Y015238
X015401Y015238
X017401Y009238
X009401Y015238
X012401Y015238
X014401Y009238
X006401Y015238
X013401Y009238
X005401Y015238
X008401Y009238
X011401Y009238
X007401Y009238
X010401Y009238
X017401Y015238
X004401Y009238
X014401Y015238
X018401Y009238
X013401Y015238
X016401Y009238
X008401Y015238
X011401Y015238
X015401Y009238
X007401Y015238
X010401Y015238
X009401Y009238
X012401Y009238
X004401Y015238
T107
X003401Y008238
X007401Y004238
X003401Y004238
X005401Y007239
X007401Y008238
X005401Y003238
T00
M30
