G04 MADE WITH FRITZING*
G04 WWW.FRITZING.ORG*
G04 DOUBLE SIDED*
G04 HOLES PLATED*
G04 CONTOUR ON CENTER OF CONTOUR VECTOR*
%ASAXBY*%
%FSLAX23Y23*%
%MOIN*%
%OFA0B0*%
%SFA1.0B1.0*%
%ADD10C,0.096614*%
%ADD11C,0.085000*%
%ADD12C,0.049370*%
%ADD13C,0.084000*%
%ADD14C,0.075000*%
%ADD15C,0.068189*%
%ADD16C,0.088000*%
%ADD17C,0.080000*%
%ADD18R,0.084000X0.084000*%
%ADD19R,0.080000X0.079972*%
%ADD20R,0.001000X0.001000*%
%LNMASK1*%
G90*
G70*
G54D10*
X74Y1658D03*
X76Y75D03*
X2479Y1658D03*
X2480Y75D03*
G54D11*
X740Y824D03*
X740Y424D03*
X540Y724D03*
X540Y324D03*
X340Y824D03*
X340Y424D03*
G54D12*
X291Y1226D03*
X1995Y602D03*
X795Y1394D03*
X2163Y962D03*
X987Y626D03*
X1347Y386D03*
X891Y50D03*
G54D13*
X2340Y824D03*
X2340Y724D03*
X2340Y624D03*
X2340Y524D03*
X2240Y824D03*
X2240Y724D03*
X2240Y624D03*
X2240Y524D03*
G54D14*
X182Y227D03*
X261Y227D03*
X340Y227D03*
X419Y227D03*
G54D15*
X2140Y1524D03*
X2140Y1424D03*
X2140Y1324D03*
X2140Y1224D03*
X2440Y1224D03*
X2440Y1324D03*
X2440Y1424D03*
X2440Y1524D03*
G54D13*
X1140Y224D03*
X1030Y224D03*
X1140Y224D03*
X1030Y224D03*
X840Y224D03*
X730Y224D03*
X840Y224D03*
X730Y224D03*
X1440Y224D03*
X1330Y224D03*
X1440Y224D03*
X1330Y224D03*
G54D16*
X2340Y224D03*
X2240Y224D03*
X2140Y224D03*
G54D13*
X1840Y224D03*
X1740Y234D03*
X1640Y224D03*
X1840Y224D03*
X1740Y234D03*
X1640Y224D03*
G54D14*
X1140Y524D03*
X1140Y624D03*
X1140Y524D03*
X1140Y624D03*
G54D13*
X1840Y524D03*
X1850Y624D03*
X1840Y724D03*
X1840Y524D03*
X1850Y624D03*
X1840Y724D03*
G54D16*
X140Y1524D03*
X140Y1424D03*
X140Y1324D03*
X140Y1224D03*
X140Y1124D03*
X140Y1024D03*
X140Y924D03*
G54D17*
X1840Y1524D03*
X1740Y1524D03*
X1640Y1524D03*
X1540Y1524D03*
X1440Y1524D03*
X1340Y1524D03*
X1240Y1524D03*
X1140Y1524D03*
X1040Y1524D03*
X940Y1524D03*
X840Y1524D03*
X740Y1524D03*
X640Y1524D03*
X540Y1524D03*
X440Y1524D03*
X1840Y924D03*
X1740Y924D03*
X1640Y924D03*
X1540Y924D03*
X1440Y924D03*
X1340Y924D03*
X1240Y924D03*
X1140Y924D03*
X1040Y924D03*
X940Y924D03*
X840Y924D03*
X740Y924D03*
X640Y924D03*
X540Y924D03*
X440Y924D03*
G54D18*
X2240Y824D03*
G54D19*
X1840Y1524D03*
G54D20*
X2107Y1558D02*
X2172Y1558D01*
X2407Y1558D02*
X2472Y1558D01*
X2102Y1557D02*
X2177Y1557D01*
X2402Y1557D02*
X2477Y1557D01*
X2099Y1556D02*
X2180Y1556D01*
X2399Y1556D02*
X2480Y1556D01*
X2097Y1555D02*
X2182Y1555D01*
X2397Y1555D02*
X2482Y1555D01*
X2095Y1554D02*
X2184Y1554D01*
X2395Y1554D02*
X2484Y1554D01*
X2093Y1553D02*
X2186Y1553D01*
X2393Y1553D02*
X2486Y1553D01*
X2091Y1552D02*
X2188Y1552D01*
X2391Y1552D02*
X2488Y1552D01*
X2090Y1551D02*
X2189Y1551D01*
X2390Y1551D02*
X2489Y1551D01*
X2089Y1550D02*
X2190Y1550D01*
X2389Y1550D02*
X2490Y1550D01*
X2088Y1549D02*
X2191Y1549D01*
X2388Y1549D02*
X2491Y1549D01*
X2087Y1548D02*
X2192Y1548D01*
X2387Y1548D02*
X2492Y1548D01*
X2086Y1547D02*
X2193Y1547D01*
X2386Y1547D02*
X2493Y1547D01*
X2085Y1546D02*
X2194Y1546D01*
X2385Y1546D02*
X2494Y1546D01*
X2084Y1545D02*
X2195Y1545D01*
X2384Y1545D02*
X2495Y1545D01*
X2083Y1544D02*
X2196Y1544D01*
X2383Y1544D02*
X2496Y1544D01*
X2083Y1543D02*
X2196Y1543D01*
X2383Y1543D02*
X2496Y1543D01*
X2082Y1542D02*
X2197Y1542D01*
X2382Y1542D02*
X2497Y1542D01*
X2081Y1541D02*
X2198Y1541D01*
X2381Y1541D02*
X2498Y1541D01*
X2081Y1540D02*
X2198Y1540D01*
X2381Y1540D02*
X2498Y1540D01*
X2080Y1539D02*
X2199Y1539D01*
X2380Y1539D02*
X2499Y1539D01*
X2080Y1538D02*
X2136Y1538D01*
X2143Y1538D02*
X2199Y1538D01*
X2380Y1538D02*
X2436Y1538D01*
X2443Y1538D02*
X2499Y1538D01*
X2080Y1537D02*
X2133Y1537D01*
X2146Y1537D02*
X2200Y1537D01*
X2380Y1537D02*
X2433Y1537D01*
X2446Y1537D02*
X2500Y1537D01*
X2079Y1536D02*
X2131Y1536D01*
X2148Y1536D02*
X2200Y1536D01*
X2379Y1536D02*
X2431Y1536D01*
X2448Y1536D02*
X2500Y1536D01*
X2079Y1535D02*
X2130Y1535D01*
X2149Y1535D02*
X2200Y1535D01*
X2379Y1535D02*
X2430Y1535D01*
X2449Y1535D02*
X2500Y1535D01*
X2078Y1534D02*
X2129Y1534D01*
X2150Y1534D02*
X2201Y1534D01*
X2378Y1534D02*
X2429Y1534D01*
X2450Y1534D02*
X2501Y1534D01*
X2078Y1533D02*
X2128Y1533D01*
X2151Y1533D02*
X2201Y1533D01*
X2378Y1533D02*
X2428Y1533D01*
X2451Y1533D02*
X2501Y1533D01*
X2078Y1532D02*
X2127Y1532D01*
X2152Y1532D02*
X2201Y1532D01*
X2378Y1532D02*
X2427Y1532D01*
X2452Y1532D02*
X2501Y1532D01*
X2078Y1531D02*
X2127Y1531D01*
X2152Y1531D02*
X2202Y1531D01*
X2378Y1531D02*
X2427Y1531D01*
X2452Y1531D02*
X2501Y1531D01*
X2077Y1530D02*
X2126Y1530D01*
X2153Y1530D02*
X2202Y1530D01*
X2377Y1530D02*
X2426Y1530D01*
X2453Y1530D02*
X2502Y1530D01*
X2077Y1529D02*
X2126Y1529D01*
X2153Y1529D02*
X2202Y1529D01*
X2377Y1529D02*
X2426Y1529D01*
X2453Y1529D02*
X2502Y1529D01*
X2077Y1528D02*
X2126Y1528D01*
X2154Y1528D02*
X2202Y1528D01*
X2377Y1528D02*
X2425Y1528D01*
X2454Y1528D02*
X2502Y1528D01*
X2077Y1527D02*
X2125Y1527D01*
X2154Y1527D02*
X2202Y1527D01*
X2377Y1527D02*
X2425Y1527D01*
X2454Y1527D02*
X2502Y1527D01*
X2077Y1526D02*
X2125Y1526D01*
X2154Y1526D02*
X2202Y1526D01*
X2377Y1526D02*
X2425Y1526D01*
X2454Y1526D02*
X2502Y1526D01*
X2077Y1525D02*
X2125Y1525D01*
X2154Y1525D02*
X2202Y1525D01*
X2377Y1525D02*
X2425Y1525D01*
X2454Y1525D02*
X2502Y1525D01*
X2077Y1524D02*
X2125Y1524D01*
X2154Y1524D02*
X2202Y1524D01*
X2377Y1524D02*
X2425Y1524D01*
X2454Y1524D02*
X2502Y1524D01*
X2077Y1523D02*
X2125Y1523D01*
X2154Y1523D02*
X2202Y1523D01*
X2377Y1523D02*
X2425Y1523D01*
X2454Y1523D02*
X2502Y1523D01*
X2077Y1522D02*
X2125Y1522D01*
X2154Y1522D02*
X2202Y1522D01*
X2377Y1522D02*
X2425Y1522D01*
X2454Y1522D02*
X2502Y1522D01*
X2077Y1521D02*
X2125Y1521D01*
X2154Y1521D02*
X2202Y1521D01*
X2377Y1521D02*
X2425Y1521D01*
X2454Y1521D02*
X2502Y1521D01*
X2077Y1520D02*
X2126Y1520D01*
X2154Y1520D02*
X2202Y1520D01*
X2377Y1520D02*
X2426Y1520D01*
X2454Y1520D02*
X2502Y1520D01*
X2077Y1519D02*
X2126Y1519D01*
X2153Y1519D02*
X2202Y1519D01*
X2377Y1519D02*
X2426Y1519D01*
X2453Y1519D02*
X2502Y1519D01*
X2078Y1518D02*
X2126Y1518D01*
X2153Y1518D02*
X2202Y1518D01*
X2378Y1518D02*
X2426Y1518D01*
X2453Y1518D02*
X2502Y1518D01*
X2078Y1517D02*
X2127Y1517D01*
X2152Y1517D02*
X2201Y1517D01*
X2378Y1517D02*
X2427Y1517D01*
X2452Y1517D02*
X2501Y1517D01*
X2078Y1516D02*
X2128Y1516D01*
X2152Y1516D02*
X2201Y1516D01*
X2378Y1516D02*
X2428Y1516D01*
X2452Y1516D02*
X2501Y1516D01*
X2078Y1515D02*
X2128Y1515D01*
X2151Y1515D02*
X2201Y1515D01*
X2378Y1515D02*
X2428Y1515D01*
X2451Y1515D02*
X2501Y1515D01*
X2079Y1514D02*
X2129Y1514D01*
X2150Y1514D02*
X2201Y1514D01*
X2379Y1514D02*
X2429Y1514D01*
X2450Y1514D02*
X2501Y1514D01*
X2079Y1513D02*
X2131Y1513D01*
X2149Y1513D02*
X2200Y1513D01*
X2379Y1513D02*
X2430Y1513D01*
X2449Y1513D02*
X2500Y1513D01*
X2079Y1512D02*
X2132Y1512D01*
X2147Y1512D02*
X2200Y1512D01*
X2379Y1512D02*
X2432Y1512D01*
X2447Y1512D02*
X2500Y1512D01*
X2080Y1511D02*
X2134Y1511D01*
X2145Y1511D02*
X2200Y1511D01*
X2380Y1511D02*
X2434Y1511D01*
X2445Y1511D02*
X2500Y1511D01*
X2080Y1510D02*
X2199Y1510D01*
X2380Y1510D02*
X2499Y1510D01*
X2081Y1509D02*
X2199Y1509D01*
X2381Y1509D02*
X2499Y1509D01*
X2081Y1508D02*
X2198Y1508D01*
X2381Y1508D02*
X2498Y1508D01*
X2082Y1507D02*
X2198Y1507D01*
X2382Y1507D02*
X2498Y1507D01*
X2082Y1506D02*
X2197Y1506D01*
X2382Y1506D02*
X2497Y1506D01*
X2083Y1505D02*
X2196Y1505D01*
X2383Y1505D02*
X2496Y1505D01*
X2084Y1504D02*
X2196Y1504D01*
X2384Y1504D02*
X2496Y1504D01*
X2084Y1503D02*
X2195Y1503D01*
X2384Y1503D02*
X2495Y1503D01*
X2085Y1502D02*
X2194Y1502D01*
X2385Y1502D02*
X2494Y1502D01*
X2086Y1501D02*
X2193Y1501D01*
X2386Y1501D02*
X2493Y1501D01*
X2087Y1500D02*
X2192Y1500D01*
X2387Y1500D02*
X2492Y1500D01*
X2088Y1499D02*
X2191Y1499D01*
X2388Y1499D02*
X2491Y1499D01*
X2089Y1498D02*
X2190Y1498D01*
X2389Y1498D02*
X2490Y1498D01*
X2090Y1497D02*
X2189Y1497D01*
X2390Y1497D02*
X2489Y1497D01*
X2092Y1496D02*
X2187Y1496D01*
X2392Y1496D02*
X2487Y1496D01*
X2094Y1495D02*
X2186Y1495D01*
X2393Y1495D02*
X2486Y1495D01*
X2095Y1494D02*
X2184Y1494D01*
X2395Y1494D02*
X2484Y1494D01*
X2097Y1493D02*
X2182Y1493D01*
X2397Y1493D02*
X2482Y1493D01*
X2100Y1492D02*
X2179Y1492D01*
X2400Y1492D02*
X2479Y1492D01*
X2103Y1491D02*
X2176Y1491D01*
X2403Y1491D02*
X2476Y1491D01*
X2107Y1458D02*
X2172Y1458D01*
X2407Y1458D02*
X2472Y1458D01*
X2102Y1457D02*
X2177Y1457D01*
X2402Y1457D02*
X2477Y1457D01*
X2099Y1456D02*
X2180Y1456D01*
X2399Y1456D02*
X2480Y1456D01*
X2097Y1455D02*
X2182Y1455D01*
X2397Y1455D02*
X2482Y1455D01*
X2095Y1454D02*
X2184Y1454D01*
X2395Y1454D02*
X2484Y1454D01*
X2093Y1453D02*
X2186Y1453D01*
X2393Y1453D02*
X2486Y1453D01*
X2091Y1452D02*
X2188Y1452D01*
X2391Y1452D02*
X2488Y1452D01*
X2090Y1451D02*
X2189Y1451D01*
X2390Y1451D02*
X2489Y1451D01*
X2089Y1450D02*
X2190Y1450D01*
X2389Y1450D02*
X2490Y1450D01*
X2088Y1449D02*
X2191Y1449D01*
X2388Y1449D02*
X2491Y1449D01*
X2087Y1448D02*
X2193Y1448D01*
X2387Y1448D02*
X2493Y1448D01*
X2086Y1447D02*
X2193Y1447D01*
X2386Y1447D02*
X2493Y1447D01*
X2085Y1446D02*
X2194Y1446D01*
X2385Y1446D02*
X2494Y1446D01*
X2084Y1445D02*
X2195Y1445D01*
X2384Y1445D02*
X2495Y1445D01*
X2083Y1444D02*
X2196Y1444D01*
X2383Y1444D02*
X2496Y1444D01*
X2083Y1443D02*
X2197Y1443D01*
X2383Y1443D02*
X2497Y1443D01*
X2082Y1442D02*
X2197Y1442D01*
X2382Y1442D02*
X2497Y1442D01*
X2081Y1441D02*
X2198Y1441D01*
X2381Y1441D02*
X2498Y1441D01*
X2081Y1440D02*
X2198Y1440D01*
X2381Y1440D02*
X2498Y1440D01*
X2080Y1439D02*
X2199Y1439D01*
X2380Y1439D02*
X2499Y1439D01*
X2080Y1438D02*
X2136Y1438D01*
X2143Y1438D02*
X2199Y1438D01*
X2380Y1438D02*
X2436Y1438D01*
X2443Y1438D02*
X2499Y1438D01*
X2079Y1437D02*
X2133Y1437D01*
X2146Y1437D02*
X2200Y1437D01*
X2379Y1437D02*
X2433Y1437D01*
X2446Y1437D02*
X2500Y1437D01*
X2079Y1436D02*
X2131Y1436D01*
X2148Y1436D02*
X2200Y1436D01*
X2379Y1436D02*
X2431Y1436D01*
X2448Y1436D02*
X2500Y1436D01*
X2079Y1435D02*
X2130Y1435D01*
X2149Y1435D02*
X2200Y1435D01*
X2379Y1435D02*
X2430Y1435D01*
X2449Y1435D02*
X2500Y1435D01*
X2078Y1434D02*
X2129Y1434D01*
X2150Y1434D02*
X2201Y1434D01*
X2378Y1434D02*
X2429Y1434D01*
X2450Y1434D02*
X2501Y1434D01*
X2078Y1433D02*
X2128Y1433D01*
X2151Y1433D02*
X2201Y1433D01*
X2378Y1433D02*
X2428Y1433D01*
X2451Y1433D02*
X2501Y1433D01*
X2078Y1432D02*
X2127Y1432D01*
X2152Y1432D02*
X2201Y1432D01*
X2378Y1432D02*
X2427Y1432D01*
X2452Y1432D02*
X2501Y1432D01*
X2078Y1431D02*
X2127Y1431D01*
X2152Y1431D02*
X2202Y1431D01*
X2378Y1431D02*
X2427Y1431D01*
X2452Y1431D02*
X2501Y1431D01*
X2077Y1430D02*
X2126Y1430D01*
X2153Y1430D02*
X2202Y1430D01*
X2377Y1430D02*
X2426Y1430D01*
X2453Y1430D02*
X2502Y1430D01*
X2077Y1429D02*
X2126Y1429D01*
X2153Y1429D02*
X2202Y1429D01*
X2377Y1429D02*
X2426Y1429D01*
X2453Y1429D02*
X2502Y1429D01*
X2077Y1428D02*
X2125Y1428D01*
X2154Y1428D02*
X2202Y1428D01*
X2377Y1428D02*
X2425Y1428D01*
X2454Y1428D02*
X2502Y1428D01*
X2077Y1427D02*
X2125Y1427D01*
X2154Y1427D02*
X2202Y1427D01*
X2377Y1427D02*
X2425Y1427D01*
X2454Y1427D02*
X2502Y1427D01*
X2077Y1426D02*
X2125Y1426D01*
X2154Y1426D02*
X2202Y1426D01*
X2377Y1426D02*
X2425Y1426D01*
X2454Y1426D02*
X2502Y1426D01*
X2077Y1425D02*
X2125Y1425D01*
X2154Y1425D02*
X2202Y1425D01*
X2377Y1425D02*
X2425Y1425D01*
X2454Y1425D02*
X2502Y1425D01*
X2077Y1424D02*
X2125Y1424D01*
X2154Y1424D02*
X2202Y1424D01*
X2377Y1424D02*
X2425Y1424D01*
X2454Y1424D02*
X2502Y1424D01*
X2077Y1423D02*
X2125Y1423D01*
X2154Y1423D02*
X2202Y1423D01*
X2377Y1423D02*
X2425Y1423D01*
X2454Y1423D02*
X2502Y1423D01*
X2077Y1422D02*
X2125Y1422D01*
X2154Y1422D02*
X2202Y1422D01*
X2377Y1422D02*
X2425Y1422D01*
X2454Y1422D02*
X2502Y1422D01*
X2077Y1421D02*
X2125Y1421D01*
X2154Y1421D02*
X2202Y1421D01*
X2377Y1421D02*
X2425Y1421D01*
X2454Y1421D02*
X2502Y1421D01*
X2077Y1420D02*
X2126Y1420D01*
X2154Y1420D02*
X2202Y1420D01*
X2377Y1420D02*
X2426Y1420D01*
X2454Y1420D02*
X2502Y1420D01*
X2077Y1419D02*
X2126Y1419D01*
X2153Y1419D02*
X2202Y1419D01*
X2377Y1419D02*
X2426Y1419D01*
X2453Y1419D02*
X2502Y1419D01*
X2078Y1418D02*
X2126Y1418D01*
X2153Y1418D02*
X2202Y1418D01*
X2378Y1418D02*
X2426Y1418D01*
X2453Y1418D02*
X2502Y1418D01*
X2078Y1417D02*
X2127Y1417D01*
X2152Y1417D02*
X2201Y1417D01*
X2378Y1417D02*
X2427Y1417D01*
X2452Y1417D02*
X2501Y1417D01*
X2078Y1416D02*
X2128Y1416D01*
X2152Y1416D02*
X2201Y1416D01*
X2378Y1416D02*
X2428Y1416D01*
X2452Y1416D02*
X2501Y1416D01*
X2078Y1415D02*
X2128Y1415D01*
X2151Y1415D02*
X2201Y1415D01*
X2378Y1415D02*
X2428Y1415D01*
X2451Y1415D02*
X2501Y1415D01*
X2079Y1414D02*
X2129Y1414D01*
X2150Y1414D02*
X2201Y1414D01*
X2379Y1414D02*
X2429Y1414D01*
X2450Y1414D02*
X2501Y1414D01*
X2079Y1413D02*
X2131Y1413D01*
X2149Y1413D02*
X2200Y1413D01*
X2379Y1413D02*
X2431Y1413D01*
X2449Y1413D02*
X2500Y1413D01*
X2079Y1412D02*
X2132Y1412D01*
X2147Y1412D02*
X2200Y1412D01*
X2379Y1412D02*
X2432Y1412D01*
X2447Y1412D02*
X2500Y1412D01*
X2080Y1411D02*
X2134Y1411D01*
X2145Y1411D02*
X2200Y1411D01*
X2380Y1411D02*
X2434Y1411D01*
X2445Y1411D02*
X2500Y1411D01*
X2080Y1410D02*
X2199Y1410D01*
X2380Y1410D02*
X2499Y1410D01*
X2081Y1409D02*
X2199Y1409D01*
X2381Y1409D02*
X2499Y1409D01*
X2081Y1408D02*
X2198Y1408D01*
X2381Y1408D02*
X2498Y1408D01*
X2082Y1407D02*
X2197Y1407D01*
X2382Y1407D02*
X2497Y1407D01*
X2082Y1406D02*
X2197Y1406D01*
X2382Y1406D02*
X2497Y1406D01*
X2083Y1405D02*
X2196Y1405D01*
X2383Y1405D02*
X2496Y1405D01*
X2084Y1404D02*
X2196Y1404D01*
X2384Y1404D02*
X2496Y1404D01*
X2084Y1403D02*
X2195Y1403D01*
X2384Y1403D02*
X2495Y1403D01*
X2085Y1402D02*
X2194Y1402D01*
X2385Y1402D02*
X2494Y1402D01*
X2086Y1401D02*
X2193Y1401D01*
X2386Y1401D02*
X2493Y1401D01*
X2087Y1400D02*
X2192Y1400D01*
X2387Y1400D02*
X2492Y1400D01*
X2088Y1399D02*
X2191Y1399D01*
X2388Y1399D02*
X2491Y1399D01*
X2089Y1398D02*
X2190Y1398D01*
X2389Y1398D02*
X2490Y1398D01*
X2090Y1397D02*
X2189Y1397D01*
X2390Y1397D02*
X2489Y1397D01*
X2092Y1396D02*
X2187Y1396D01*
X2392Y1396D02*
X2487Y1396D01*
X2094Y1395D02*
X2186Y1395D01*
X2394Y1395D02*
X2486Y1395D01*
X2095Y1394D02*
X2184Y1394D01*
X2395Y1394D02*
X2484Y1394D01*
X2097Y1393D02*
X2182Y1393D01*
X2397Y1393D02*
X2482Y1393D01*
X2100Y1392D02*
X2179Y1392D01*
X2400Y1392D02*
X2479Y1392D01*
X2103Y1391D02*
X2176Y1391D01*
X2403Y1391D02*
X2476Y1391D01*
X2107Y1358D02*
X2172Y1358D01*
X2407Y1358D02*
X2472Y1358D01*
X2102Y1357D02*
X2177Y1357D01*
X2402Y1357D02*
X2477Y1357D01*
X2099Y1356D02*
X2180Y1356D01*
X2399Y1356D02*
X2480Y1356D01*
X2097Y1355D02*
X2182Y1355D01*
X2397Y1355D02*
X2482Y1355D01*
X2095Y1354D02*
X2185Y1354D01*
X2395Y1354D02*
X2485Y1354D01*
X2093Y1353D02*
X2186Y1353D01*
X2393Y1353D02*
X2486Y1353D01*
X2091Y1352D02*
X2188Y1352D01*
X2391Y1352D02*
X2488Y1352D01*
X2090Y1351D02*
X2189Y1351D01*
X2390Y1351D02*
X2489Y1351D01*
X2089Y1350D02*
X2190Y1350D01*
X2389Y1350D02*
X2490Y1350D01*
X2088Y1349D02*
X2191Y1349D01*
X2388Y1349D02*
X2491Y1349D01*
X2087Y1348D02*
X2193Y1348D01*
X2387Y1348D02*
X2493Y1348D01*
X2086Y1347D02*
X2193Y1347D01*
X2386Y1347D02*
X2493Y1347D01*
X2085Y1346D02*
X2194Y1346D01*
X2385Y1346D02*
X2494Y1346D01*
X2084Y1345D02*
X2195Y1345D01*
X2384Y1345D02*
X2495Y1345D01*
X2083Y1344D02*
X2196Y1344D01*
X2383Y1344D02*
X2496Y1344D01*
X2083Y1343D02*
X2197Y1343D01*
X2383Y1343D02*
X2497Y1343D01*
X2082Y1342D02*
X2197Y1342D01*
X2382Y1342D02*
X2497Y1342D01*
X2081Y1341D02*
X2198Y1341D01*
X2381Y1341D02*
X2498Y1341D01*
X2081Y1340D02*
X2198Y1340D01*
X2381Y1340D02*
X2498Y1340D01*
X2080Y1339D02*
X2199Y1339D01*
X2380Y1339D02*
X2499Y1339D01*
X2080Y1338D02*
X2136Y1338D01*
X2143Y1338D02*
X2199Y1338D01*
X2380Y1338D02*
X2436Y1338D01*
X2443Y1338D02*
X2499Y1338D01*
X2079Y1337D02*
X2133Y1337D01*
X2146Y1337D02*
X2200Y1337D01*
X2379Y1337D02*
X2433Y1337D01*
X2446Y1337D02*
X2500Y1337D01*
X2079Y1336D02*
X2131Y1336D01*
X2148Y1336D02*
X2200Y1336D01*
X2379Y1336D02*
X2431Y1336D01*
X2448Y1336D02*
X2500Y1336D01*
X2079Y1335D02*
X2130Y1335D01*
X2149Y1335D02*
X2200Y1335D01*
X2379Y1335D02*
X2430Y1335D01*
X2449Y1335D02*
X2500Y1335D01*
X2078Y1334D02*
X2129Y1334D01*
X2150Y1334D02*
X2201Y1334D01*
X2378Y1334D02*
X2429Y1334D01*
X2450Y1334D02*
X2501Y1334D01*
X2078Y1333D02*
X2128Y1333D01*
X2151Y1333D02*
X2201Y1333D01*
X2378Y1333D02*
X2428Y1333D01*
X2451Y1333D02*
X2501Y1333D01*
X2078Y1332D02*
X2127Y1332D01*
X2152Y1332D02*
X2201Y1332D01*
X2378Y1332D02*
X2427Y1332D01*
X2452Y1332D02*
X2501Y1332D01*
X2078Y1331D02*
X2127Y1331D01*
X2152Y1331D02*
X2202Y1331D01*
X2378Y1331D02*
X2427Y1331D01*
X2452Y1331D02*
X2501Y1331D01*
X2077Y1330D02*
X2126Y1330D01*
X2153Y1330D02*
X2202Y1330D01*
X2377Y1330D02*
X2426Y1330D01*
X2453Y1330D02*
X2502Y1330D01*
X2077Y1329D02*
X2126Y1329D01*
X2153Y1329D02*
X2202Y1329D01*
X2377Y1329D02*
X2426Y1329D01*
X2453Y1329D02*
X2502Y1329D01*
X2077Y1328D02*
X2125Y1328D01*
X2154Y1328D02*
X2202Y1328D01*
X2377Y1328D02*
X2425Y1328D01*
X2454Y1328D02*
X2502Y1328D01*
X2077Y1327D02*
X2125Y1327D01*
X2154Y1327D02*
X2202Y1327D01*
X2377Y1327D02*
X2425Y1327D01*
X2454Y1327D02*
X2502Y1327D01*
X2077Y1326D02*
X2125Y1326D01*
X2154Y1326D02*
X2202Y1326D01*
X2377Y1326D02*
X2425Y1326D01*
X2454Y1326D02*
X2502Y1326D01*
X2077Y1325D02*
X2125Y1325D01*
X2154Y1325D02*
X2202Y1325D01*
X2377Y1325D02*
X2425Y1325D01*
X2454Y1325D02*
X2502Y1325D01*
X2077Y1324D02*
X2125Y1324D01*
X2154Y1324D02*
X2202Y1324D01*
X2377Y1324D02*
X2425Y1324D01*
X2454Y1324D02*
X2502Y1324D01*
X2077Y1323D02*
X2125Y1323D01*
X2154Y1323D02*
X2202Y1323D01*
X2377Y1323D02*
X2425Y1323D01*
X2454Y1323D02*
X2502Y1323D01*
X2077Y1322D02*
X2125Y1322D01*
X2154Y1322D02*
X2202Y1322D01*
X2377Y1322D02*
X2425Y1322D01*
X2454Y1322D02*
X2502Y1322D01*
X2077Y1321D02*
X2125Y1321D01*
X2154Y1321D02*
X2202Y1321D01*
X2377Y1321D02*
X2425Y1321D01*
X2454Y1321D02*
X2502Y1321D01*
X2077Y1320D02*
X2126Y1320D01*
X2154Y1320D02*
X2202Y1320D01*
X2377Y1320D02*
X2426Y1320D01*
X2454Y1320D02*
X2502Y1320D01*
X2077Y1319D02*
X2126Y1319D01*
X2153Y1319D02*
X2202Y1319D01*
X2377Y1319D02*
X2426Y1319D01*
X2453Y1319D02*
X2502Y1319D01*
X2078Y1318D02*
X2126Y1318D01*
X2153Y1318D02*
X2202Y1318D01*
X2378Y1318D02*
X2426Y1318D01*
X2453Y1318D02*
X2502Y1318D01*
X2078Y1317D02*
X2127Y1317D01*
X2152Y1317D02*
X2201Y1317D01*
X2378Y1317D02*
X2427Y1317D01*
X2452Y1317D02*
X2501Y1317D01*
X2078Y1316D02*
X2128Y1316D01*
X2152Y1316D02*
X2201Y1316D01*
X2378Y1316D02*
X2428Y1316D01*
X2452Y1316D02*
X2501Y1316D01*
X2078Y1315D02*
X2128Y1315D01*
X2151Y1315D02*
X2201Y1315D01*
X2378Y1315D02*
X2428Y1315D01*
X2451Y1315D02*
X2501Y1315D01*
X2079Y1314D02*
X2129Y1314D01*
X2150Y1314D02*
X2201Y1314D01*
X2379Y1314D02*
X2429Y1314D01*
X2450Y1314D02*
X2501Y1314D01*
X2079Y1313D02*
X2131Y1313D01*
X2149Y1313D02*
X2200Y1313D01*
X2379Y1313D02*
X2431Y1313D01*
X2449Y1313D02*
X2500Y1313D01*
X2079Y1312D02*
X2132Y1312D01*
X2147Y1312D02*
X2200Y1312D01*
X2379Y1312D02*
X2432Y1312D01*
X2447Y1312D02*
X2500Y1312D01*
X2080Y1311D02*
X2134Y1311D01*
X2145Y1311D02*
X2199Y1311D01*
X2380Y1311D02*
X2434Y1311D01*
X2445Y1311D02*
X2499Y1311D01*
X2080Y1310D02*
X2199Y1310D01*
X2380Y1310D02*
X2499Y1310D01*
X2081Y1309D02*
X2199Y1309D01*
X2381Y1309D02*
X2499Y1309D01*
X2081Y1308D02*
X2198Y1308D01*
X2381Y1308D02*
X2498Y1308D01*
X2082Y1307D02*
X2197Y1307D01*
X2382Y1307D02*
X2497Y1307D01*
X2082Y1306D02*
X2197Y1306D01*
X2382Y1306D02*
X2497Y1306D01*
X2083Y1305D02*
X2196Y1305D01*
X2383Y1305D02*
X2496Y1305D01*
X2084Y1304D02*
X2196Y1304D01*
X2384Y1304D02*
X2496Y1304D01*
X2084Y1303D02*
X2195Y1303D01*
X2384Y1303D02*
X2495Y1303D01*
X2085Y1302D02*
X2194Y1302D01*
X2385Y1302D02*
X2494Y1302D01*
X2086Y1301D02*
X2193Y1301D01*
X2386Y1301D02*
X2493Y1301D01*
X2087Y1300D02*
X2192Y1300D01*
X2387Y1300D02*
X2492Y1300D01*
X2088Y1299D02*
X2191Y1299D01*
X2388Y1299D02*
X2491Y1299D01*
X2089Y1298D02*
X2190Y1298D01*
X2389Y1298D02*
X2490Y1298D01*
X2091Y1297D02*
X2189Y1297D01*
X2391Y1297D02*
X2489Y1297D01*
X2092Y1296D02*
X2187Y1296D01*
X2392Y1296D02*
X2487Y1296D01*
X2094Y1295D02*
X2186Y1295D01*
X2394Y1295D02*
X2486Y1295D01*
X2095Y1294D02*
X2184Y1294D01*
X2395Y1294D02*
X2484Y1294D01*
X2097Y1293D02*
X2182Y1293D01*
X2397Y1293D02*
X2482Y1293D01*
X2100Y1292D02*
X2179Y1292D01*
X2400Y1292D02*
X2479Y1292D01*
X2104Y1291D02*
X2176Y1291D01*
X2404Y1291D02*
X2476Y1291D01*
X2107Y1258D02*
X2172Y1258D01*
X2407Y1258D02*
X2472Y1258D01*
X2102Y1257D02*
X2177Y1257D01*
X2402Y1257D02*
X2477Y1257D01*
X2099Y1256D02*
X2180Y1256D01*
X2399Y1256D02*
X2480Y1256D01*
X2097Y1255D02*
X2182Y1255D01*
X2397Y1255D02*
X2482Y1255D01*
X2095Y1254D02*
X2185Y1254D01*
X2395Y1254D02*
X2485Y1254D01*
X2093Y1253D02*
X2186Y1253D01*
X2393Y1253D02*
X2486Y1253D01*
X2091Y1252D02*
X2188Y1252D01*
X2391Y1252D02*
X2488Y1252D01*
X2090Y1251D02*
X2189Y1251D01*
X2390Y1251D02*
X2489Y1251D01*
X2089Y1250D02*
X2190Y1250D01*
X2389Y1250D02*
X2490Y1250D01*
X2088Y1249D02*
X2192Y1249D01*
X2388Y1249D02*
X2492Y1249D01*
X2087Y1248D02*
X2193Y1248D01*
X2387Y1248D02*
X2493Y1248D01*
X2086Y1247D02*
X2193Y1247D01*
X2386Y1247D02*
X2493Y1247D01*
X2085Y1246D02*
X2194Y1246D01*
X2385Y1246D02*
X2494Y1246D01*
X2084Y1245D02*
X2195Y1245D01*
X2384Y1245D02*
X2495Y1245D01*
X2083Y1244D02*
X2196Y1244D01*
X2383Y1244D02*
X2496Y1244D01*
X2083Y1243D02*
X2197Y1243D01*
X2383Y1243D02*
X2497Y1243D01*
X2082Y1242D02*
X2197Y1242D01*
X2382Y1242D02*
X2497Y1242D01*
X2081Y1241D02*
X2198Y1241D01*
X2381Y1241D02*
X2498Y1241D01*
X2081Y1240D02*
X2198Y1240D01*
X2381Y1240D02*
X2498Y1240D01*
X2080Y1239D02*
X2199Y1239D01*
X2380Y1239D02*
X2499Y1239D01*
X2080Y1238D02*
X2136Y1238D01*
X2143Y1238D02*
X2199Y1238D01*
X2380Y1238D02*
X2436Y1238D01*
X2443Y1238D02*
X2499Y1238D01*
X2079Y1237D02*
X2133Y1237D01*
X2146Y1237D02*
X2200Y1237D01*
X2379Y1237D02*
X2433Y1237D01*
X2446Y1237D02*
X2500Y1237D01*
X2079Y1236D02*
X2131Y1236D01*
X2148Y1236D02*
X2200Y1236D01*
X2379Y1236D02*
X2431Y1236D01*
X2448Y1236D02*
X2500Y1236D01*
X2079Y1235D02*
X2130Y1235D01*
X2149Y1235D02*
X2200Y1235D01*
X2379Y1235D02*
X2430Y1235D01*
X2449Y1235D02*
X2500Y1235D01*
X2078Y1234D02*
X2129Y1234D01*
X2150Y1234D02*
X2201Y1234D01*
X2378Y1234D02*
X2429Y1234D01*
X2450Y1234D02*
X2501Y1234D01*
X2078Y1233D02*
X2128Y1233D01*
X2151Y1233D02*
X2201Y1233D01*
X2378Y1233D02*
X2428Y1233D01*
X2451Y1233D02*
X2501Y1233D01*
X2078Y1232D02*
X2127Y1232D01*
X2152Y1232D02*
X2201Y1232D01*
X2378Y1232D02*
X2427Y1232D01*
X2452Y1232D02*
X2501Y1232D01*
X2078Y1231D02*
X2127Y1231D01*
X2152Y1231D02*
X2202Y1231D01*
X2378Y1231D02*
X2427Y1231D01*
X2452Y1231D02*
X2501Y1231D01*
X2077Y1230D02*
X2126Y1230D01*
X2153Y1230D02*
X2202Y1230D01*
X2377Y1230D02*
X2426Y1230D01*
X2453Y1230D02*
X2502Y1230D01*
X2077Y1229D02*
X2126Y1229D01*
X2153Y1229D02*
X2202Y1229D01*
X2377Y1229D02*
X2426Y1229D01*
X2453Y1229D02*
X2502Y1229D01*
X2077Y1228D02*
X2125Y1228D01*
X2154Y1228D02*
X2202Y1228D01*
X2377Y1228D02*
X2425Y1228D01*
X2454Y1228D02*
X2502Y1228D01*
X2077Y1227D02*
X2125Y1227D01*
X2154Y1227D02*
X2202Y1227D01*
X2377Y1227D02*
X2425Y1227D01*
X2454Y1227D02*
X2502Y1227D01*
X2077Y1226D02*
X2125Y1226D01*
X2154Y1226D02*
X2202Y1226D01*
X2377Y1226D02*
X2425Y1226D01*
X2454Y1226D02*
X2502Y1226D01*
X2077Y1225D02*
X2125Y1225D01*
X2154Y1225D02*
X2202Y1225D01*
X2377Y1225D02*
X2425Y1225D01*
X2454Y1225D02*
X2502Y1225D01*
X2077Y1224D02*
X2125Y1224D01*
X2154Y1224D02*
X2202Y1224D01*
X2377Y1224D02*
X2425Y1224D01*
X2454Y1224D02*
X2502Y1224D01*
X2077Y1223D02*
X2125Y1223D01*
X2154Y1223D02*
X2202Y1223D01*
X2377Y1223D02*
X2425Y1223D01*
X2454Y1223D02*
X2502Y1223D01*
X2077Y1222D02*
X2125Y1222D01*
X2154Y1222D02*
X2202Y1222D01*
X2377Y1222D02*
X2425Y1222D01*
X2454Y1222D02*
X2502Y1222D01*
X2077Y1221D02*
X2125Y1221D01*
X2154Y1221D02*
X2202Y1221D01*
X2377Y1221D02*
X2425Y1221D01*
X2454Y1221D02*
X2502Y1221D01*
X2077Y1220D02*
X2126Y1220D01*
X2154Y1220D02*
X2202Y1220D01*
X2377Y1220D02*
X2426Y1220D01*
X2454Y1220D02*
X2502Y1220D01*
X2077Y1219D02*
X2126Y1219D01*
X2153Y1219D02*
X2202Y1219D01*
X2377Y1219D02*
X2426Y1219D01*
X2453Y1219D02*
X2502Y1219D01*
X2078Y1218D02*
X2126Y1218D01*
X2153Y1218D02*
X2202Y1218D01*
X2378Y1218D02*
X2426Y1218D01*
X2453Y1218D02*
X2502Y1218D01*
X2078Y1217D02*
X2127Y1217D01*
X2152Y1217D02*
X2201Y1217D01*
X2378Y1217D02*
X2427Y1217D01*
X2452Y1217D02*
X2501Y1217D01*
X2078Y1216D02*
X2128Y1216D01*
X2152Y1216D02*
X2201Y1216D01*
X2378Y1216D02*
X2428Y1216D01*
X2452Y1216D02*
X2501Y1216D01*
X2078Y1215D02*
X2128Y1215D01*
X2151Y1215D02*
X2201Y1215D01*
X2378Y1215D02*
X2428Y1215D01*
X2451Y1215D02*
X2501Y1215D01*
X2079Y1214D02*
X2129Y1214D01*
X2150Y1214D02*
X2201Y1214D01*
X2379Y1214D02*
X2429Y1214D01*
X2450Y1214D02*
X2501Y1214D01*
X2079Y1213D02*
X2131Y1213D01*
X2149Y1213D02*
X2200Y1213D01*
X2379Y1213D02*
X2431Y1213D01*
X2449Y1213D02*
X2500Y1213D01*
X2079Y1212D02*
X2132Y1212D01*
X2147Y1212D02*
X2200Y1212D01*
X2379Y1212D02*
X2432Y1212D01*
X2447Y1212D02*
X2500Y1212D01*
X2080Y1211D02*
X2134Y1211D01*
X2145Y1211D02*
X2199Y1211D01*
X2380Y1211D02*
X2434Y1211D01*
X2445Y1211D02*
X2499Y1211D01*
X2080Y1210D02*
X2199Y1210D01*
X2380Y1210D02*
X2499Y1210D01*
X2081Y1209D02*
X2199Y1209D01*
X2381Y1209D02*
X2499Y1209D01*
X2081Y1208D02*
X2198Y1208D01*
X2381Y1208D02*
X2498Y1208D01*
X2082Y1207D02*
X2197Y1207D01*
X2382Y1207D02*
X2497Y1207D01*
X2082Y1206D02*
X2197Y1206D01*
X2382Y1206D02*
X2497Y1206D01*
X2083Y1205D02*
X2196Y1205D01*
X2383Y1205D02*
X2496Y1205D01*
X2084Y1204D02*
X2196Y1204D01*
X2384Y1204D02*
X2496Y1204D01*
X2084Y1203D02*
X2195Y1203D01*
X2384Y1203D02*
X2495Y1203D01*
X2085Y1202D02*
X2194Y1202D01*
X2385Y1202D02*
X2494Y1202D01*
X2086Y1201D02*
X2193Y1201D01*
X2386Y1201D02*
X2493Y1201D01*
X2087Y1200D02*
X2192Y1200D01*
X2387Y1200D02*
X2492Y1200D01*
X2088Y1199D02*
X2191Y1199D01*
X2388Y1199D02*
X2491Y1199D01*
X2089Y1198D02*
X2190Y1198D01*
X2389Y1198D02*
X2490Y1198D01*
X2091Y1197D02*
X2189Y1197D01*
X2391Y1197D02*
X2489Y1197D01*
X2092Y1196D02*
X2187Y1196D01*
X2392Y1196D02*
X2487Y1196D01*
X2094Y1195D02*
X2186Y1195D01*
X2394Y1195D02*
X2486Y1195D01*
X2095Y1194D02*
X2184Y1194D01*
X2395Y1194D02*
X2484Y1194D01*
X2098Y1193D02*
X2182Y1193D01*
X2397Y1193D02*
X2482Y1193D01*
X2100Y1192D02*
X2179Y1192D01*
X2400Y1192D02*
X2479Y1192D01*
X2104Y1191D02*
X2176Y1191D01*
X2404Y1191D02*
X2476Y1191D01*
X1103Y661D02*
X1177Y661D01*
X1103Y660D02*
X1177Y660D01*
X1103Y659D02*
X1177Y659D01*
X1103Y658D02*
X1177Y658D01*
X1103Y657D02*
X1177Y657D01*
X1103Y656D02*
X1177Y656D01*
X1103Y655D02*
X1177Y655D01*
X1103Y654D02*
X1177Y654D01*
X1103Y653D02*
X1177Y653D01*
X1103Y652D02*
X1177Y652D01*
X1103Y651D02*
X1177Y651D01*
X1103Y650D02*
X1177Y650D01*
X1103Y649D02*
X1177Y649D01*
X1103Y648D02*
X1177Y648D01*
X1103Y647D02*
X1177Y647D01*
X1103Y646D02*
X1177Y646D01*
X1103Y645D02*
X1177Y645D01*
X1103Y644D02*
X1177Y644D01*
X1103Y643D02*
X1177Y643D01*
X1103Y642D02*
X1177Y642D01*
X1103Y641D02*
X1177Y641D01*
X1103Y640D02*
X1177Y640D01*
X1103Y639D02*
X1177Y639D01*
X1103Y638D02*
X1177Y638D01*
X1103Y637D02*
X1177Y637D01*
X1103Y636D02*
X1177Y636D01*
X1103Y635D02*
X1177Y635D01*
X1103Y634D02*
X1177Y634D01*
X1103Y633D02*
X1138Y633D01*
X1141Y633D02*
X1177Y633D01*
X1103Y632D02*
X1135Y632D01*
X1145Y632D02*
X1177Y632D01*
X1103Y631D02*
X1133Y631D01*
X1146Y631D02*
X1177Y631D01*
X1103Y630D02*
X1132Y630D01*
X1147Y630D02*
X1177Y630D01*
X1103Y629D02*
X1132Y629D01*
X1147Y629D02*
X1177Y629D01*
X1103Y628D02*
X1131Y628D01*
X1148Y628D02*
X1177Y628D01*
X1103Y627D02*
X1131Y627D01*
X1148Y627D02*
X1177Y627D01*
X1103Y626D02*
X1130Y626D01*
X1149Y626D02*
X1177Y626D01*
X1103Y625D02*
X1130Y625D01*
X1149Y625D02*
X1177Y625D01*
X1103Y624D02*
X1130Y624D01*
X1149Y624D02*
X1177Y624D01*
X1103Y623D02*
X1130Y623D01*
X1149Y623D02*
X1177Y623D01*
X1103Y622D02*
X1131Y622D01*
X1149Y622D02*
X1177Y622D01*
X1103Y621D02*
X1131Y621D01*
X1148Y621D02*
X1177Y621D01*
X1103Y620D02*
X1131Y620D01*
X1148Y620D02*
X1177Y620D01*
X1103Y619D02*
X1132Y619D01*
X1147Y619D02*
X1177Y619D01*
X1103Y618D02*
X1133Y618D01*
X1146Y618D02*
X1177Y618D01*
X1103Y617D02*
X1134Y617D01*
X1145Y617D02*
X1177Y617D01*
X1103Y616D02*
X1136Y616D01*
X1143Y616D02*
X1177Y616D01*
X1103Y615D02*
X1177Y615D01*
X1103Y614D02*
X1177Y614D01*
X1103Y613D02*
X1177Y613D01*
X1103Y612D02*
X1177Y612D01*
X1103Y611D02*
X1177Y611D01*
X1103Y610D02*
X1177Y610D01*
X1103Y609D02*
X1177Y609D01*
X1103Y608D02*
X1177Y608D01*
X1103Y607D02*
X1177Y607D01*
X1103Y606D02*
X1177Y606D01*
X1103Y605D02*
X1177Y605D01*
X1103Y604D02*
X1177Y604D01*
X1103Y603D02*
X1177Y603D01*
X1103Y602D02*
X1177Y602D01*
X1103Y601D02*
X1177Y601D01*
X1103Y600D02*
X1177Y600D01*
X1103Y599D02*
X1177Y599D01*
X1103Y598D02*
X1177Y598D01*
X1103Y597D02*
X1177Y597D01*
X1103Y596D02*
X1177Y596D01*
X1103Y595D02*
X1177Y595D01*
X1103Y594D02*
X1177Y594D01*
X1103Y593D02*
X1177Y593D01*
X1103Y592D02*
X1177Y592D01*
X1103Y591D02*
X1177Y591D01*
X1103Y590D02*
X1177Y590D01*
X1103Y589D02*
X1177Y589D01*
X1103Y588D02*
X1177Y588D01*
X1103Y587D02*
X1176Y587D01*
X1798Y566D02*
X1881Y566D01*
X1798Y565D02*
X1881Y565D01*
X1798Y564D02*
X1881Y564D01*
X1798Y563D02*
X1881Y563D01*
X1798Y562D02*
X1881Y562D01*
X1798Y561D02*
X1881Y561D01*
X1798Y560D02*
X1881Y560D01*
X1798Y559D02*
X1881Y559D01*
X1798Y558D02*
X1881Y558D01*
X1798Y557D02*
X1881Y557D01*
X1798Y556D02*
X1881Y556D01*
X1798Y555D02*
X1881Y555D01*
X1798Y554D02*
X1881Y554D01*
X1798Y553D02*
X1881Y553D01*
X1798Y552D02*
X1881Y552D01*
X1798Y551D02*
X1881Y551D01*
X1798Y550D02*
X1881Y550D01*
X1798Y549D02*
X1881Y549D01*
X1798Y548D02*
X1881Y548D01*
X1798Y547D02*
X1881Y547D01*
X1798Y546D02*
X1881Y546D01*
X1798Y545D02*
X1881Y545D01*
X1798Y544D02*
X1881Y544D01*
X1798Y543D02*
X1881Y543D01*
X1798Y542D02*
X1881Y542D01*
X1798Y541D02*
X1881Y541D01*
X1798Y540D02*
X1881Y540D01*
X1798Y539D02*
X1836Y539D01*
X1843Y539D02*
X1881Y539D01*
X1798Y538D02*
X1833Y538D01*
X1846Y538D02*
X1881Y538D01*
X1798Y537D02*
X1831Y537D01*
X1848Y537D02*
X1881Y537D01*
X1798Y536D02*
X1830Y536D01*
X1849Y536D02*
X1881Y536D01*
X1798Y535D02*
X1829Y535D01*
X1851Y535D02*
X1881Y535D01*
X1798Y534D02*
X1828Y534D01*
X1851Y534D02*
X1881Y534D01*
X1798Y533D02*
X1827Y533D01*
X1852Y533D02*
X1881Y533D01*
X1798Y532D02*
X1826Y532D01*
X1853Y532D02*
X1881Y532D01*
X1798Y531D02*
X1826Y531D01*
X1854Y531D02*
X1881Y531D01*
X1798Y530D02*
X1825Y530D01*
X1854Y530D02*
X1881Y530D01*
X1798Y529D02*
X1825Y529D01*
X1854Y529D02*
X1881Y529D01*
X1798Y528D02*
X1825Y528D01*
X1855Y528D02*
X1881Y528D01*
X1798Y527D02*
X1824Y527D01*
X1855Y527D02*
X1881Y527D01*
X1798Y526D02*
X1824Y526D01*
X1855Y526D02*
X1881Y526D01*
X1798Y525D02*
X1824Y525D01*
X1855Y525D02*
X1881Y525D01*
X1798Y524D02*
X1824Y524D01*
X1855Y524D02*
X1881Y524D01*
X1798Y523D02*
X1824Y523D01*
X1855Y523D02*
X1881Y523D01*
X1798Y522D02*
X1824Y522D01*
X1855Y522D02*
X1881Y522D01*
X1798Y521D02*
X1824Y521D01*
X1855Y521D02*
X1881Y521D01*
X1798Y520D02*
X1825Y520D01*
X1854Y520D02*
X1881Y520D01*
X1798Y519D02*
X1825Y519D01*
X1854Y519D02*
X1881Y519D01*
X1798Y518D02*
X1825Y518D01*
X1854Y518D02*
X1881Y518D01*
X1798Y517D02*
X1826Y517D01*
X1853Y517D02*
X1881Y517D01*
X1798Y516D02*
X1827Y516D01*
X1853Y516D02*
X1881Y516D01*
X1798Y515D02*
X1827Y515D01*
X1852Y515D02*
X1881Y515D01*
X1798Y514D02*
X1828Y514D01*
X1851Y514D02*
X1881Y514D01*
X1798Y513D02*
X1829Y513D01*
X1850Y513D02*
X1881Y513D01*
X1798Y512D02*
X1830Y512D01*
X1849Y512D02*
X1881Y512D01*
X1798Y511D02*
X1832Y511D01*
X1847Y511D02*
X1881Y511D01*
X1798Y510D02*
X1835Y510D01*
X1845Y510D02*
X1881Y510D01*
X1798Y509D02*
X1881Y509D01*
X1798Y508D02*
X1881Y508D01*
X1798Y507D02*
X1881Y507D01*
X1798Y506D02*
X1881Y506D01*
X1798Y505D02*
X1881Y505D01*
X1798Y504D02*
X1881Y504D01*
X1798Y503D02*
X1881Y503D01*
X1798Y502D02*
X1881Y502D01*
X1798Y501D02*
X1881Y501D01*
X1798Y500D02*
X1881Y500D01*
X1798Y499D02*
X1881Y499D01*
X1798Y498D02*
X1881Y498D01*
X1798Y497D02*
X1881Y497D01*
X1798Y496D02*
X1881Y496D01*
X1798Y495D02*
X1881Y495D01*
X1798Y494D02*
X1881Y494D01*
X1798Y493D02*
X1881Y493D01*
X1798Y492D02*
X1881Y492D01*
X1798Y491D02*
X1881Y491D01*
X1798Y490D02*
X1881Y490D01*
X1798Y489D02*
X1881Y489D01*
X1798Y488D02*
X1881Y488D01*
X1798Y487D02*
X1881Y487D01*
X1798Y486D02*
X1881Y486D01*
X1798Y485D02*
X1881Y485D01*
X1798Y484D02*
X1881Y484D01*
X1798Y483D02*
X1881Y483D01*
X798Y266D02*
X881Y266D01*
X1098Y266D02*
X1181Y266D01*
X1398Y266D02*
X1481Y266D01*
X1798Y266D02*
X1881Y266D01*
X798Y265D02*
X881Y265D01*
X1098Y265D02*
X1181Y265D01*
X1398Y265D02*
X1481Y265D01*
X1798Y265D02*
X1881Y265D01*
X798Y264D02*
X881Y264D01*
X1098Y264D02*
X1181Y264D01*
X1398Y264D02*
X1481Y264D01*
X1798Y264D02*
X1881Y264D01*
X798Y263D02*
X881Y263D01*
X1098Y263D02*
X1181Y263D01*
X1398Y263D02*
X1481Y263D01*
X1798Y263D02*
X1881Y263D01*
X798Y262D02*
X881Y262D01*
X1098Y262D02*
X1181Y262D01*
X1398Y262D02*
X1481Y262D01*
X1798Y262D02*
X1881Y262D01*
X798Y261D02*
X881Y261D01*
X1098Y261D02*
X1181Y261D01*
X1398Y261D02*
X1481Y261D01*
X1798Y261D02*
X1881Y261D01*
X798Y260D02*
X881Y260D01*
X1098Y260D02*
X1181Y260D01*
X1398Y260D02*
X1481Y260D01*
X1798Y260D02*
X1881Y260D01*
X798Y259D02*
X881Y259D01*
X1098Y259D02*
X1181Y259D01*
X1398Y259D02*
X1481Y259D01*
X1798Y259D02*
X1881Y259D01*
X798Y258D02*
X881Y258D01*
X1098Y258D02*
X1181Y258D01*
X1398Y258D02*
X1481Y258D01*
X1798Y258D02*
X1881Y258D01*
X798Y257D02*
X881Y257D01*
X1098Y257D02*
X1181Y257D01*
X1398Y257D02*
X1481Y257D01*
X1798Y257D02*
X1881Y257D01*
X798Y256D02*
X881Y256D01*
X1098Y256D02*
X1181Y256D01*
X1398Y256D02*
X1481Y256D01*
X1798Y256D02*
X1881Y256D01*
X798Y255D02*
X881Y255D01*
X1098Y255D02*
X1181Y255D01*
X1398Y255D02*
X1481Y255D01*
X1798Y255D02*
X1881Y255D01*
X798Y254D02*
X881Y254D01*
X1098Y254D02*
X1181Y254D01*
X1398Y254D02*
X1481Y254D01*
X1798Y254D02*
X1881Y254D01*
X798Y253D02*
X881Y253D01*
X1098Y253D02*
X1181Y253D01*
X1398Y253D02*
X1481Y253D01*
X1798Y253D02*
X1881Y253D01*
X798Y252D02*
X881Y252D01*
X1098Y252D02*
X1181Y252D01*
X1398Y252D02*
X1481Y252D01*
X1798Y252D02*
X1881Y252D01*
X798Y251D02*
X881Y251D01*
X1098Y251D02*
X1181Y251D01*
X1398Y251D02*
X1481Y251D01*
X1798Y251D02*
X1881Y251D01*
X798Y250D02*
X881Y250D01*
X1098Y250D02*
X1181Y250D01*
X1398Y250D02*
X1481Y250D01*
X1798Y250D02*
X1881Y250D01*
X798Y249D02*
X881Y249D01*
X1098Y249D02*
X1181Y249D01*
X1398Y249D02*
X1481Y249D01*
X1798Y249D02*
X1881Y249D01*
X798Y248D02*
X881Y248D01*
X1098Y248D02*
X1181Y248D01*
X1398Y248D02*
X1481Y248D01*
X1798Y248D02*
X1881Y248D01*
X798Y247D02*
X881Y247D01*
X1098Y247D02*
X1181Y247D01*
X1398Y247D02*
X1481Y247D01*
X1798Y247D02*
X1881Y247D01*
X798Y246D02*
X881Y246D01*
X1098Y246D02*
X1181Y246D01*
X1398Y246D02*
X1481Y246D01*
X1798Y246D02*
X1881Y246D01*
X798Y245D02*
X881Y245D01*
X1098Y245D02*
X1181Y245D01*
X1398Y245D02*
X1481Y245D01*
X1798Y245D02*
X1881Y245D01*
X798Y244D02*
X881Y244D01*
X1098Y244D02*
X1181Y244D01*
X1398Y244D02*
X1481Y244D01*
X1798Y244D02*
X1881Y244D01*
X798Y243D02*
X881Y243D01*
X1098Y243D02*
X1181Y243D01*
X1398Y243D02*
X1481Y243D01*
X1798Y243D02*
X1881Y243D01*
X798Y242D02*
X881Y242D01*
X1098Y242D02*
X1181Y242D01*
X1398Y242D02*
X1481Y242D01*
X1798Y242D02*
X1881Y242D01*
X798Y241D02*
X881Y241D01*
X1098Y241D02*
X1181Y241D01*
X1398Y241D02*
X1481Y241D01*
X1798Y241D02*
X1881Y241D01*
X798Y240D02*
X881Y240D01*
X1098Y240D02*
X1181Y240D01*
X1398Y240D02*
X1481Y240D01*
X1798Y240D02*
X1881Y240D01*
X798Y239D02*
X836Y239D01*
X844Y239D02*
X881Y239D01*
X1098Y239D02*
X1136Y239D01*
X1144Y239D02*
X1181Y239D01*
X1398Y239D02*
X1436Y239D01*
X1443Y239D02*
X1481Y239D01*
X1798Y239D02*
X1836Y239D01*
X1843Y239D02*
X1881Y239D01*
X798Y238D02*
X833Y238D01*
X846Y238D02*
X881Y238D01*
X1098Y238D02*
X1133Y238D01*
X1146Y238D02*
X1181Y238D01*
X1398Y238D02*
X1433Y238D01*
X1446Y238D02*
X1481Y238D01*
X1798Y238D02*
X1833Y238D01*
X1846Y238D02*
X1881Y238D01*
X798Y237D02*
X831Y237D01*
X848Y237D02*
X881Y237D01*
X1098Y237D02*
X1131Y237D01*
X1148Y237D02*
X1181Y237D01*
X1398Y237D02*
X1431Y237D01*
X1448Y237D02*
X1481Y237D01*
X1798Y237D02*
X1831Y237D01*
X1848Y237D02*
X1881Y237D01*
X798Y236D02*
X830Y236D01*
X849Y236D02*
X881Y236D01*
X1098Y236D02*
X1130Y236D01*
X1149Y236D02*
X1181Y236D01*
X1398Y236D02*
X1430Y236D01*
X1449Y236D02*
X1481Y236D01*
X1798Y236D02*
X1830Y236D01*
X1849Y236D02*
X1881Y236D01*
X798Y235D02*
X829Y235D01*
X851Y235D02*
X881Y235D01*
X1098Y235D02*
X1129Y235D01*
X1151Y235D02*
X1181Y235D01*
X1398Y235D02*
X1429Y235D01*
X1451Y235D02*
X1481Y235D01*
X1798Y235D02*
X1829Y235D01*
X1851Y235D02*
X1881Y235D01*
X798Y234D02*
X828Y234D01*
X852Y234D02*
X881Y234D01*
X1098Y234D02*
X1128Y234D01*
X1152Y234D02*
X1181Y234D01*
X1398Y234D02*
X1428Y234D01*
X1452Y234D02*
X1481Y234D01*
X1798Y234D02*
X1828Y234D01*
X1852Y234D02*
X1881Y234D01*
X798Y233D02*
X827Y233D01*
X852Y233D02*
X881Y233D01*
X1098Y233D02*
X1127Y233D01*
X1152Y233D02*
X1181Y233D01*
X1398Y233D02*
X1427Y233D01*
X1452Y233D02*
X1481Y233D01*
X1798Y233D02*
X1827Y233D01*
X1852Y233D02*
X1881Y233D01*
X798Y232D02*
X826Y232D01*
X853Y232D02*
X881Y232D01*
X1098Y232D02*
X1126Y232D01*
X1153Y232D02*
X1181Y232D01*
X1398Y232D02*
X1426Y232D01*
X1453Y232D02*
X1481Y232D01*
X1798Y232D02*
X1826Y232D01*
X1853Y232D02*
X1881Y232D01*
X798Y231D02*
X826Y231D01*
X854Y231D02*
X881Y231D01*
X1098Y231D02*
X1126Y231D01*
X1154Y231D02*
X1181Y231D01*
X1398Y231D02*
X1426Y231D01*
X1454Y231D02*
X1481Y231D01*
X1798Y231D02*
X1826Y231D01*
X1854Y231D02*
X1881Y231D01*
X798Y230D02*
X825Y230D01*
X854Y230D02*
X881Y230D01*
X1098Y230D02*
X1125Y230D01*
X1154Y230D02*
X1181Y230D01*
X1398Y230D02*
X1425Y230D01*
X1454Y230D02*
X1481Y230D01*
X1798Y230D02*
X1825Y230D01*
X1854Y230D02*
X1881Y230D01*
X798Y229D02*
X825Y229D01*
X854Y229D02*
X881Y229D01*
X1098Y229D02*
X1125Y229D01*
X1154Y229D02*
X1181Y229D01*
X1398Y229D02*
X1425Y229D01*
X1454Y229D02*
X1481Y229D01*
X1798Y229D02*
X1825Y229D01*
X1854Y229D02*
X1881Y229D01*
X798Y228D02*
X825Y228D01*
X855Y228D02*
X881Y228D01*
X1098Y228D02*
X1125Y228D01*
X1155Y228D02*
X1181Y228D01*
X1398Y228D02*
X1425Y228D01*
X1455Y228D02*
X1481Y228D01*
X1798Y228D02*
X1824Y228D01*
X1855Y228D02*
X1881Y228D01*
X798Y227D02*
X824Y227D01*
X855Y227D02*
X881Y227D01*
X1098Y227D02*
X1124Y227D01*
X1155Y227D02*
X1181Y227D01*
X1398Y227D02*
X1424Y227D01*
X1455Y227D02*
X1481Y227D01*
X1798Y227D02*
X1824Y227D01*
X1855Y227D02*
X1881Y227D01*
X798Y226D02*
X824Y226D01*
X855Y226D02*
X881Y226D01*
X1098Y226D02*
X1124Y226D01*
X1155Y226D02*
X1181Y226D01*
X1398Y226D02*
X1424Y226D01*
X1455Y226D02*
X1481Y226D01*
X1798Y226D02*
X1824Y226D01*
X1855Y226D02*
X1881Y226D01*
X798Y225D02*
X824Y225D01*
X855Y225D02*
X881Y225D01*
X1098Y225D02*
X1124Y225D01*
X1155Y225D02*
X1181Y225D01*
X1398Y225D02*
X1424Y225D01*
X1455Y225D02*
X1481Y225D01*
X1798Y225D02*
X1824Y225D01*
X1855Y225D02*
X1881Y225D01*
X798Y224D02*
X824Y224D01*
X855Y224D02*
X881Y224D01*
X1098Y224D02*
X1124Y224D01*
X1155Y224D02*
X1181Y224D01*
X1398Y224D02*
X1424Y224D01*
X1455Y224D02*
X1481Y224D01*
X1798Y224D02*
X1824Y224D01*
X1855Y224D02*
X1881Y224D01*
X798Y223D02*
X824Y223D01*
X855Y223D02*
X881Y223D01*
X1098Y223D02*
X1124Y223D01*
X1155Y223D02*
X1181Y223D01*
X1398Y223D02*
X1424Y223D01*
X1455Y223D02*
X1481Y223D01*
X1798Y223D02*
X1824Y223D01*
X1855Y223D02*
X1881Y223D01*
X798Y222D02*
X824Y222D01*
X855Y222D02*
X881Y222D01*
X1098Y222D02*
X1124Y222D01*
X1155Y222D02*
X1181Y222D01*
X1398Y222D02*
X1424Y222D01*
X1455Y222D02*
X1481Y222D01*
X1798Y222D02*
X1824Y222D01*
X1855Y222D02*
X1881Y222D01*
X798Y221D02*
X824Y221D01*
X855Y221D02*
X881Y221D01*
X1098Y221D02*
X1124Y221D01*
X1155Y221D02*
X1181Y221D01*
X1398Y221D02*
X1424Y221D01*
X1455Y221D02*
X1481Y221D01*
X1798Y221D02*
X1824Y221D01*
X1855Y221D02*
X1881Y221D01*
X798Y220D02*
X825Y220D01*
X854Y220D02*
X881Y220D01*
X1098Y220D02*
X1125Y220D01*
X1154Y220D02*
X1181Y220D01*
X1398Y220D02*
X1425Y220D01*
X1454Y220D02*
X1481Y220D01*
X1798Y220D02*
X1825Y220D01*
X1854Y220D02*
X1881Y220D01*
X798Y219D02*
X825Y219D01*
X854Y219D02*
X881Y219D01*
X1098Y219D02*
X1125Y219D01*
X1154Y219D02*
X1181Y219D01*
X1398Y219D02*
X1425Y219D01*
X1454Y219D02*
X1481Y219D01*
X1798Y219D02*
X1825Y219D01*
X1854Y219D02*
X1881Y219D01*
X798Y218D02*
X825Y218D01*
X854Y218D02*
X881Y218D01*
X1098Y218D02*
X1125Y218D01*
X1154Y218D02*
X1181Y218D01*
X1398Y218D02*
X1425Y218D01*
X1454Y218D02*
X1481Y218D01*
X1798Y218D02*
X1825Y218D01*
X1854Y218D02*
X1881Y218D01*
X798Y217D02*
X826Y217D01*
X853Y217D02*
X881Y217D01*
X1098Y217D02*
X1126Y217D01*
X1153Y217D02*
X1181Y217D01*
X1398Y217D02*
X1426Y217D01*
X1453Y217D02*
X1481Y217D01*
X1798Y217D02*
X1826Y217D01*
X1853Y217D02*
X1881Y217D01*
X798Y216D02*
X827Y216D01*
X853Y216D02*
X881Y216D01*
X1098Y216D02*
X1127Y216D01*
X1153Y216D02*
X1181Y216D01*
X1398Y216D02*
X1427Y216D01*
X1453Y216D02*
X1481Y216D01*
X1798Y216D02*
X1827Y216D01*
X1853Y216D02*
X1881Y216D01*
X798Y215D02*
X827Y215D01*
X852Y215D02*
X881Y215D01*
X1098Y215D02*
X1127Y215D01*
X1152Y215D02*
X1181Y215D01*
X1398Y215D02*
X1427Y215D01*
X1452Y215D02*
X1481Y215D01*
X1798Y215D02*
X1827Y215D01*
X1852Y215D02*
X1881Y215D01*
X798Y214D02*
X828Y214D01*
X851Y214D02*
X881Y214D01*
X1098Y214D02*
X1128Y214D01*
X1151Y214D02*
X1181Y214D01*
X1398Y214D02*
X1428Y214D01*
X1451Y214D02*
X1481Y214D01*
X1798Y214D02*
X1828Y214D01*
X1851Y214D02*
X1881Y214D01*
X798Y213D02*
X829Y213D01*
X850Y213D02*
X881Y213D01*
X1098Y213D02*
X1129Y213D01*
X1150Y213D02*
X1181Y213D01*
X1398Y213D02*
X1429Y213D01*
X1450Y213D02*
X1481Y213D01*
X1798Y213D02*
X1829Y213D01*
X1850Y213D02*
X1881Y213D01*
X798Y212D02*
X831Y212D01*
X849Y212D02*
X881Y212D01*
X1098Y212D02*
X1131Y212D01*
X1149Y212D02*
X1181Y212D01*
X1398Y212D02*
X1431Y212D01*
X1449Y212D02*
X1481Y212D01*
X1798Y212D02*
X1831Y212D01*
X1849Y212D02*
X1881Y212D01*
X798Y211D02*
X832Y211D01*
X847Y211D02*
X881Y211D01*
X1098Y211D02*
X1132Y211D01*
X1147Y211D02*
X1181Y211D01*
X1398Y211D02*
X1432Y211D01*
X1447Y211D02*
X1481Y211D01*
X1798Y211D02*
X1832Y211D01*
X1847Y211D02*
X1881Y211D01*
X798Y210D02*
X835Y210D01*
X844Y210D02*
X881Y210D01*
X1098Y210D02*
X1135Y210D01*
X1144Y210D02*
X1181Y210D01*
X1398Y210D02*
X1435Y210D01*
X1444Y210D02*
X1481Y210D01*
X1798Y210D02*
X1835Y210D01*
X1844Y210D02*
X1881Y210D01*
X798Y209D02*
X881Y209D01*
X1098Y209D02*
X1181Y209D01*
X1398Y209D02*
X1481Y209D01*
X1798Y209D02*
X1881Y209D01*
X798Y208D02*
X881Y208D01*
X1098Y208D02*
X1181Y208D01*
X1398Y208D02*
X1481Y208D01*
X1798Y208D02*
X1881Y208D01*
X798Y207D02*
X881Y207D01*
X1098Y207D02*
X1181Y207D01*
X1398Y207D02*
X1481Y207D01*
X1798Y207D02*
X1881Y207D01*
X798Y206D02*
X881Y206D01*
X1098Y206D02*
X1181Y206D01*
X1398Y206D02*
X1481Y206D01*
X1798Y206D02*
X1881Y206D01*
X798Y205D02*
X881Y205D01*
X1098Y205D02*
X1181Y205D01*
X1398Y205D02*
X1481Y205D01*
X1798Y205D02*
X1881Y205D01*
X798Y204D02*
X881Y204D01*
X1098Y204D02*
X1181Y204D01*
X1398Y204D02*
X1481Y204D01*
X1798Y204D02*
X1881Y204D01*
X798Y203D02*
X881Y203D01*
X1098Y203D02*
X1181Y203D01*
X1398Y203D02*
X1481Y203D01*
X1798Y203D02*
X1881Y203D01*
X798Y202D02*
X881Y202D01*
X1098Y202D02*
X1181Y202D01*
X1398Y202D02*
X1481Y202D01*
X1798Y202D02*
X1881Y202D01*
X798Y201D02*
X881Y201D01*
X1098Y201D02*
X1181Y201D01*
X1398Y201D02*
X1481Y201D01*
X1798Y201D02*
X1881Y201D01*
X798Y200D02*
X881Y200D01*
X1098Y200D02*
X1181Y200D01*
X1398Y200D02*
X1481Y200D01*
X1798Y200D02*
X1881Y200D01*
X798Y199D02*
X881Y199D01*
X1098Y199D02*
X1181Y199D01*
X1398Y199D02*
X1481Y199D01*
X1798Y199D02*
X1881Y199D01*
X798Y198D02*
X881Y198D01*
X1098Y198D02*
X1181Y198D01*
X1398Y198D02*
X1481Y198D01*
X1798Y198D02*
X1881Y198D01*
X798Y197D02*
X881Y197D01*
X1098Y197D02*
X1181Y197D01*
X1398Y197D02*
X1481Y197D01*
X1798Y197D02*
X1881Y197D01*
X798Y196D02*
X881Y196D01*
X1098Y196D02*
X1181Y196D01*
X1398Y196D02*
X1481Y196D01*
X1798Y196D02*
X1881Y196D01*
X798Y195D02*
X881Y195D01*
X1098Y195D02*
X1181Y195D01*
X1398Y195D02*
X1481Y195D01*
X1798Y195D02*
X1881Y195D01*
X798Y194D02*
X881Y194D01*
X1098Y194D02*
X1181Y194D01*
X1398Y194D02*
X1481Y194D01*
X1798Y194D02*
X1881Y194D01*
X798Y193D02*
X881Y193D01*
X1098Y193D02*
X1181Y193D01*
X1398Y193D02*
X1481Y193D01*
X1798Y193D02*
X1881Y193D01*
X798Y192D02*
X881Y192D01*
X1098Y192D02*
X1181Y192D01*
X1398Y192D02*
X1481Y192D01*
X1798Y192D02*
X1881Y192D01*
X798Y191D02*
X881Y191D01*
X1098Y191D02*
X1181Y191D01*
X1398Y191D02*
X1481Y191D01*
X1798Y191D02*
X1881Y191D01*
X798Y190D02*
X881Y190D01*
X1098Y190D02*
X1181Y190D01*
X1398Y190D02*
X1481Y190D01*
X1798Y190D02*
X1881Y190D01*
X798Y189D02*
X881Y189D01*
X1098Y189D02*
X1181Y189D01*
X1398Y189D02*
X1481Y189D01*
X1798Y189D02*
X1881Y189D01*
X798Y188D02*
X881Y188D01*
X1098Y188D02*
X1181Y188D01*
X1398Y188D02*
X1481Y188D01*
X1798Y188D02*
X1881Y188D01*
X798Y187D02*
X881Y187D01*
X1098Y187D02*
X1181Y187D01*
X1398Y187D02*
X1481Y187D01*
X1798Y187D02*
X1881Y187D01*
X798Y186D02*
X881Y186D01*
X1098Y186D02*
X1181Y186D01*
X1398Y186D02*
X1481Y186D01*
X1798Y186D02*
X1881Y186D01*
X798Y185D02*
X881Y185D01*
X1098Y185D02*
X1181Y185D01*
X1398Y185D02*
X1481Y185D01*
X1798Y185D02*
X1881Y185D01*
X798Y184D02*
X881Y184D01*
X1098Y184D02*
X1181Y184D01*
X1398Y184D02*
X1481Y184D01*
X1798Y184D02*
X1881Y184D01*
X798Y183D02*
X881Y183D01*
X1098Y183D02*
X1181Y183D01*
X1398Y183D02*
X1481Y183D01*
X1798Y183D02*
X1881Y183D01*
D02*
G04 End of Mask1*
M02*