; NON-PLATED HOLES START AT T1
; THROUGH (PLATED) HOLES START AT T100
M48
INCH
T1C0.086614
T100C0.038189
T101C0.025000
T102C0.027559
T103C0.015748
T104C0.038000
T105C0.040000
T106C0.036000
T107C0.035000
%
T1
X024789Y016582
X000744Y016582
X024802Y000750
X000755Y000752
T100
X024401Y013243
X021401Y015243
X021401Y013243
X024401Y014243
X024401Y012243
X021401Y014243
X024401Y015243
X021401Y012243
T101
X004186Y002276
X001824Y002276
X003398Y002276
X002612Y002276
T102
X011401Y005243
X011401Y006243
T103
X002910Y012267
X007950Y013947
X019950Y006027
X013470Y003867
X008910Y000507
X021630Y009627
X009870Y006267
T104
X023401Y002243
X001401Y015243
X001401Y010243
X001401Y011243
X001401Y012243
X001401Y009243
X001401Y013243
X021401Y002243
X022401Y002243
X001401Y014243
T105
X018401Y002243
X022401Y006243
X014401Y002243
X023401Y007243
X018501Y006243
X018401Y007243
X008401Y002243
X011401Y002243
X022401Y008243
X017401Y002343
X022401Y005243
X023401Y006243
X016401Y002243
X013301Y002243
X007301Y002243
X022401Y007243
X010301Y002243
X023401Y008243
X023401Y005243
X018401Y005243
T106
X014401Y015243
X016401Y009243
X008401Y015243
X011401Y015243
X015401Y009243
X007401Y015243
X010401Y015243
X013401Y009243
X009401Y009243
X012401Y009243
X004401Y015243
X006401Y009243
X005401Y009243
X016401Y015243
X015401Y015243
X018401Y009243
X013401Y015243
X017401Y009243
X009401Y015243
X012401Y015243
X014401Y009243
X006401Y015243
X005401Y015243
X008401Y009243
X011401Y009243
X007401Y009243
X010401Y009243
X018401Y015243
X017401Y015243
X004401Y009243
T107
X007401Y004243
X003401Y008243
X003401Y004243
X005401Y007243
X007401Y008243
X005401Y003243
T00
M30
